<svg xmlns="http://www.w3.org/2000/svg" viewBox="0 0 400 400" width="400" height="400">
  <polyline points="98,135 130,133 159,129 189,125 244,120 279,119 295,119 302,120 305,121 306,123 308,125 313,137 317,163 313,194 306,232 302,260 300,268 300,271 298,273" fill="none" stroke="#777777" stroke-width="2" stroke-linecap="round" stroke-linejoin="round" />
  <polyline points="98,137 94,154 90,171 87,190 85,232 86,259 89,282 91,291 92,293 94,294 96,294 97,295 103,296 121,298 158,298 196,297 231,295 245,294 259,293 275,291 289,289 292,289 293,289 295,288 296,287 296,287 297,286 298,285 300,281 304,273 305,266" fill="none" stroke="#777777" stroke-width="2" stroke-linecap="round" stroke-linejoin="round" />
  <polyline points="206,123 202,137" fill="none" stroke="#777777" stroke-width="2" stroke-linecap="round" stroke-linejoin="round" />
  <polyline points="191,271 190,289 190,293" fill="none" stroke="#777777" stroke-width="2" stroke-linecap="round" stroke-linejoin="round" />
  <polyline points="290,205 301,205" fill="none" stroke="#777777" stroke-width="2" stroke-linecap="round" stroke-linejoin="round" />
  <polyline points="92,220 105,220" fill="none" stroke="#777777" stroke-width="2" stroke-linecap="round" stroke-linejoin="round" />
  <polyline points="102,135 109,143 111,146 114,148" fill="none" stroke="#777777" stroke-width="2" stroke-linecap="round" stroke-linejoin="round" />
  <polyline points="296,121 287,132" fill="none" stroke="#777777" stroke-width="2" stroke-linecap="round" stroke-linejoin="round" />
  <polyline points="94,293 101,286 106,281" fill="none" stroke="#777777" stroke-width="2" stroke-linecap="round" stroke-linejoin="round" />
  <polyline points="278,266 290,273 295,274" fill="none" stroke="#777777" stroke-width="2" stroke-linecap="round" stroke-linejoin="round" />
  <polyline points="198,203 197,194 198,193" fill="none" stroke="#777777" stroke-width="2" stroke-linecap="round" stroke-linejoin="round" />
  <polyline points="200,199 210,192 213,190 219,186 232,177 245,169 253,163 257,160 260,158 263,157 265,156" fill="none" stroke="#777777" stroke-width="2" stroke-linecap="round" stroke-linejoin="round" />
  <polyline points="203,202 216,204 218,205 223,205 225,205 234,207 240,207 244,208 245,208" fill="none" stroke="#777777" stroke-width="2" stroke-linecap="round" stroke-linejoin="round" />
  <polyline points="197,196 187,201 183,204 178,208 166,215 152,225 138,234 129,243 122,249 119,251 118,252 117,253" fill="none" stroke="#777777" stroke-width="2" stroke-linecap="round" stroke-linejoin="round" />
</svg>