<svg xmlns="http://www.w3.org/2000/svg" viewBox="0 0 400 400" width="400" height="400">
  <polyline points="95,299 104,291 110,280 120,264 132,256 144,248 158,241 171,234 186,225 204,215 221,205 233,198 243,193 249,190 253,188 256,186 257,187" fill="none" stroke="#777777" stroke-width="2" stroke-linecap="round" stroke-linejoin="round" />
  <polyline points="127,310 129,307 134,301 140,293 147,285 156,279 163,277 173,271 183,267 192,263 200,261 209,256 218,252 226,250 233,246 241,242 248,238 254,234 260,231 266,228 271,225 275,221 280,219 285,216 289,213 293,210 297,207 300,205 304,202 307,200 310,197 314,196 316,195 317,195 317,194" fill="none" stroke="#777777" stroke-width="2" stroke-linecap="round" stroke-linejoin="round" />
  <polyline points="252,181 263,177 268,173 274,167 280,165 287,161 293,160 298,158 303,156 309,155 312,155" fill="none" stroke="#777777" stroke-width="2" stroke-linecap="round" stroke-linejoin="round" />
  <polyline points="329,175 332,167 333,161 336,152 339,147 343,143 346,138 350,133 354,129 357,125 360,121 363,118 366,117 368,116 370,116 371,116" fill="none" stroke="#777777" stroke-width="2" stroke-linecap="round" stroke-linejoin="round" />
  <polyline points="306,147 306,148 311,147 318,143 328,138 337,132 347,126 356,123 363,120 370,119" fill="none" stroke="#777777" stroke-width="2" stroke-linecap="round" stroke-linejoin="round" />
  <polyline points="303,160 302,165 302,168 302,171 304,175 308,178 313,178 319,179" fill="none" stroke="#777777" stroke-width="2" stroke-linecap="round" stroke-linejoin="round" />
  <polyline points="325,166 331,160 337,153 342,147" fill="none" stroke="#777777" stroke-width="2" stroke-linecap="round" stroke-linejoin="round" />
  <polyline points="328,173 334,166 338,160 342,151" fill="none" stroke="#777777" stroke-width="2" stroke-linecap="round" stroke-linejoin="round" />
  <polyline points="320,162 325,152 332,144 337,136 343,133 345,133" fill="none" stroke="#777777" stroke-width="2" stroke-linecap="round" stroke-linejoin="round" />
  <polyline points="315,159 318,155 324,145 334,130" fill="none" stroke="#777777" stroke-width="2" stroke-linecap="round" stroke-linejoin="round" />
  <polyline points="121,283 123,285 126,290 131,298 138,307 144,307 151,306" fill="none" stroke="#777777" stroke-width="2" stroke-linecap="round" stroke-linejoin="round" />
</svg>