<svg xmlns="http://www.w3.org/2000/svg" viewBox="0 0 400 400" width="400" height="400">
  <polyline points="194,100 198,111 198,117 198,127 199,130 201,131" fill="none" stroke="#777777" stroke-width="2" stroke-linecap="round" stroke-linejoin="round" />
  <polyline points="278,224 284,221 289,220 296,217 306,215 318,213" fill="none" stroke="#777777" stroke-width="2" stroke-linecap="round" stroke-linejoin="round" />
  <polyline points="210,287 209,308 209,320 210,336 212,336" fill="none" stroke="#777777" stroke-width="2" stroke-linecap="round" stroke-linejoin="round" />
  <polyline points="82,230 91,229 98,229 109,228" fill="none" stroke="#777777" stroke-width="2" stroke-linecap="round" stroke-linejoin="round" />
  <polyline points="214,208 214,212 214,213 212,214 210,214 210,213 210,211 209,214 206,216 203,216" fill="none" stroke="#777777" stroke-width="2" stroke-linecap="round" stroke-linejoin="round" />
  <polyline points="212,202 215,190 218,182 223,172 228,167 233,161 241,156 248,151 256,146 264,141 269,138 272,136 274,136 274,137 275,137" fill="none" stroke="#777777" stroke-width="2" stroke-linecap="round" stroke-linejoin="round" />
  <polyline points="218,207 216,209 221,203 227,197 233,192 239,186 246,185 253,184" fill="none" stroke="#777777" stroke-width="2" stroke-linecap="round" stroke-linejoin="round" />
</svg>