<svg xmlns="http://www.w3.org/2000/svg" viewBox="0 0 400 400" width="400" height="400">
  <polyline points="171,66 156,83 148,96 140,110 133,128 129,137 121,162 119,179 119,194 122,209 128,225 137,238 148,253 161,264 176,273 191,278 208,281 225,278 243,272 263,265 283,257 300,245 316,233 328,219 336,206 341,192 343,178 343,164 340,149 334,133 325,118 313,107 301,95 287,86 273,77 260,70 247,65 233,61 217,60 200,64" fill="none" stroke="currentColor" stroke-width="2" stroke-linecap="round" stroke-linejoin="round" />
  <polyline points="231,166 229,175 226,175 223,175 222,174 221,174 221,173 221,172 221,171 222,170 222,170 223,169 223,169 223,169 223,169 222,169 222,168 222,169 223,169 223,168 224,167 226,165 228,161 231,157 235,153 239,148 243,143 247,139 250,135 253,132 255,130 257,128 260,126 262,125" fill="none" stroke="currentColor" stroke-width="2" stroke-linecap="round" stroke-linejoin="round" />
  <polyline points="231,172 234,184 234,189 234,194 235,198 236,203 236,208 236,212 237,217 237,220 237,224 238,228 238,232" fill="none" stroke="currentColor" stroke-width="2" stroke-linecap="round" stroke-linejoin="round" />
  <polyline points="198,73 196,83 196,89 196,91" fill="none" stroke="currentColor" stroke-width="2" stroke-linecap="round" stroke-linejoin="round" />
  <polyline points="244,82 243,97" fill="none" stroke="currentColor" stroke-width="2" stroke-linecap="round" stroke-linejoin="round" />
  <polyline points="311,115 305,124" fill="none" stroke="currentColor" stroke-width="2" stroke-linecap="round" stroke-linejoin="round" />
  <polyline points="325,151 310,156 303,159 300,161" fill="none" stroke="currentColor" stroke-width="2" stroke-linecap="round" stroke-linejoin="round" />
  <polyline points="318,201 308,195 301,191 296,188" fill="none" stroke="currentColor" stroke-width="2" stroke-linecap="round" stroke-linejoin="round" />
  <polyline points="281,244 270,238 266,236" fill="none" stroke="currentColor" stroke-width="2" stroke-linecap="round" stroke-linejoin="round" />
  <polyline points="232,264 222,257 218,253 216,248 213,243" fill="none" stroke="currentColor" stroke-width="2" stroke-linecap="round" stroke-linejoin="round" />
  <polyline points="159,249 164,241 170,235 176,230 182,226 187,222 189,221" fill="none" stroke="currentColor" stroke-width="2" stroke-linecap="round" stroke-linejoin="round" />
  <polyline points="144,187 154,191 157,190 162,188 165,186" fill="none" stroke="currentColor" stroke-width="2" stroke-linecap="round" stroke-linejoin="round" />
  <polyline points="145,150 160,150 167,149" fill="none" stroke="currentColor" stroke-width="2" stroke-linecap="round" stroke-linejoin="round" />
  <polyline points="177,99 187,109" fill="none" stroke="currentColor" stroke-width="2" stroke-linecap="round" stroke-linejoin="round" />
</svg>