<svg xmlns="http://www.w3.org/2000/svg" viewBox="0 0 400 400" width="400" height="400">
  <polyline points="176,76 173,86 170,96 167,107 164,120 161,133 157,150 154,170 152,194 153,208 154,217 155,224 157,230 158,237 159,243 160,248 162,253 164,257 165,261 166,264 167,266 167,269 167,271 167,273 167,275 168,277 169,279 169,280 170,282 170,283 170,285 170,286 170,287 170,288 170,289 170,290 170,291 170,292 170,292 170,293 170,293 170,293 170,294 170,295 170,295 170,295 170,296 170,296 170,296" fill="none" stroke="currentColor" stroke-width="2" stroke-linecap="round" stroke-linejoin="round" />
</svg>