<svg xmlns="http://www.w3.org/2000/svg" viewBox="0 0 400 400" width="400" height="400">
  <polyline points="124,126 124,127 124,133 124,140 124,150 122,174 121,190 121,205 121,220 121,229 120,232 120,233 120,233 120,230 120,227 121,222" fill="none" stroke="#777777" stroke-width="2" stroke-linecap="round" stroke-linejoin="round" />
  <polyline points="123,122 124,122 125,122 132,122 146,122 163,124 184,124 206,124 222,124 240,124 249,124" fill="none" stroke="#777777" stroke-width="2" stroke-linecap="round" stroke-linejoin="round" />
  <polyline points="248,130 248,137 248,145 248,163 247,171 245,189 245,201 245,211 245,221 245,225 245,229 245,233 245,234 245,235" fill="none" stroke="#777777" stroke-width="2" stroke-linecap="round" stroke-linejoin="round" />
  <polyline points="119,233 120,233 121,233 123,233 129,233 139,233 149,233 161,233 179,233 197,233 210,233 220,233 223,233 225,233 229,233 233,234 234,234 237,235 238,235 241,235 243,235 244,235" fill="none" stroke="#777777" stroke-width="2" stroke-linecap="round" stroke-linejoin="round" />
</svg>