<svg xmlns="http://www.w3.org/2000/svg" viewBox="0 0 400 400" width="400" height="400">
  <polyline points="200,172 201,189 201,198 202,208 202,217 203,226 203,234 203,241 203,249 202,256 201,261 200,267 199,272 197,277 196,282 194,285 192,289 189,293 187,296 186,300 184,302 184,304 183,304 183,305 183,305 183,305" fill="none" stroke="currentColor" stroke-width="2" stroke-linecap="round" stroke-linejoin="round" />
  <polyline points="234,170 228,186 226,194 224,205 223,217 224,230 226,242 229,255 231,261 232,264 234,269 237,273 239,279 242,284 245,288 250,294 251,295 253,298 255,299 256,301 256,301 257,302 257,302 258,303 258,303 258,303 258,303 258,303 259,304 259,305 260,306 260,306 260,307 260,307 261,307 261,308 261,308 261,308 260,308 258,308 255,308 250,307 246,307 196,304 187,306" fill="none" stroke="currentColor" stroke-width="2" stroke-linecap="round" stroke-linejoin="round" />
  <polyline points="185,211 179,217 173,222 167,223 103,182 103,157 103,146 103,157 103,202 103,206 103,204 103,205 103,205 102,203" fill="none" stroke="currentColor" stroke-width="2" stroke-linecap="round" stroke-linejoin="round" />
  <polyline points="102,203 102,202 102,200" fill="none" stroke="currentColor" stroke-width="2" stroke-linecap="round" stroke-linejoin="round" />
  <polyline points="112,153 104,141 122,152 122,152 123,152" fill="none" stroke="currentColor" stroke-width="2" stroke-linecap="round" stroke-linejoin="round" />
  <polyline points="116,131 110,124 107,119 109,118 116,91 128,88 130,125 130,107 130,81 132,81 133,132 133,145" fill="none" stroke="currentColor" stroke-width="2" stroke-linecap="round" stroke-linejoin="round" />
  <polyline points="142,86 147,72 151,70 153,67 174,66 182,81 190,57 205,48 205,65 205,58 205,55 205,77 205,46 205,43 205,72 184,99" fill="none" stroke="currentColor" stroke-width="2" stroke-linecap="round" stroke-linejoin="round" />
  <polyline points="217,67 223,61 227,57 229,55 242,57 242,67 242,51 247,65 235,97 229,101" fill="none" stroke="currentColor" stroke-width="2" stroke-linecap="round" stroke-linejoin="round" />
  <polyline points="255,72 263,68 267,64 262,62 262,60 262,79 262,90 262,77 285,75 291,82 296,98 296,112 297,117 307,125 313,131 323,146 324,158 324,169 323,184 319,195 302,201 269,208 239,201 232,201" fill="none" stroke="currentColor" stroke-width="2" stroke-linecap="round" stroke-linejoin="round" />
  <polyline points="224,59 217,61 210,63 205,66 201,68" fill="none" stroke="currentColor" stroke-width="2" stroke-linecap="round" stroke-linejoin="round" />
  <polyline points="163,81 152,85 147,88 144,91 140,94" fill="none" stroke="currentColor" stroke-width="2" stroke-linecap="round" stroke-linejoin="round" />
  <polyline points="181,148 173,145 169,143 163,139 160,137 155,132 150,128 146,123 144,121 144,120" fill="none" stroke="currentColor" stroke-width="2" stroke-linecap="round" stroke-linejoin="round" />
  <polyline points="215,123 218,115 220,112 221,109 223,99" fill="none" stroke="currentColor" stroke-width="2" stroke-linecap="round" stroke-linejoin="round" />
  <polyline points="241,144 250,140 252,138 248,136 248,116 248,113" fill="none" stroke="currentColor" stroke-width="2" stroke-linecap="round" stroke-linejoin="round" />
  <polyline points="259,171 271,169 273,169 270,168 275,166" fill="none" stroke="currentColor" stroke-width="2" stroke-linecap="round" stroke-linejoin="round" />
  <polyline points="171,184 158,182 159,180 163,178 164,173" fill="none" stroke="currentColor" stroke-width="2" stroke-linecap="round" stroke-linejoin="round" />
</svg>