<svg xmlns="http://www.w3.org/2000/svg" viewBox="0 0 400 400" width="400" height="400">
  <polyline points="131,159 143,161 147,161 149,161 154,160 155,159 157,159 158,159 158,159 158,158" fill="none" stroke="#777777" stroke-width="2" stroke-linecap="round" stroke-linejoin="round" />
  <polyline points="151,160 150,170 151,171 153,172 155,174 157,176 160,177 163,178 166,179 168,179 170,180 173,180 175,180 178,180 180,180 183,180 186,180 188,180 190,180 194,180 194,180 196,180 197,180 199,180 200,180 201,180" fill="none" stroke="#777777" stroke-width="2" stroke-linecap="round" stroke-linejoin="round" />
  <polyline points="197,148 200,159 203,163 206,167 210,172 213,175 215,178 215,179 215,180 215,180" fill="none" stroke="#777777" stroke-width="2" stroke-linecap="round" stroke-linejoin="round" />
  <polyline points="195,145 205,147 208,148 211,148 213,147 215,147 215,146 217,146 218,145 219,144 220,143 221,143 222,143 223,143" fill="none" stroke="#777777" stroke-width="2" stroke-linecap="round" stroke-linejoin="round" />
  <polyline points="199,136 193,144 193,144 190,142 190,142 190,138 190,136 192,130 194,126 196,123 197,121 199,120" fill="none" stroke="#777777" stroke-width="2" stroke-linecap="round" stroke-linejoin="round" />
  <polyline points="210,180 221,177 225,175 229,174" fill="none" stroke="#777777" stroke-width="2" stroke-linecap="round" stroke-linejoin="round" />
  <polyline points="167,181 157,184 157,184 154,184 153,184 150,184 149,184 146,184 143,184 141,184 137,184 134,184 130,183 126,183 123,182 121,181" fill="none" stroke="#777777" stroke-width="2" stroke-linecap="round" stroke-linejoin="round" />
  <polyline points="124,176 134,180 140,183 146,186 151,189 155,191 160,193 166,193 171,192 175,190 180,188 182,187" fill="none" stroke="#777777" stroke-width="2" stroke-linecap="round" stroke-linejoin="round" />
  <polyline points="117,186 140,187 149,187 159,187 170,187 180,187 189,188 197,189 203,189" fill="none" stroke="#777777" stroke-width="2" stroke-linecap="round" stroke-linejoin="round" />
  <polyline points="248,181 238,182 237,182 236,182 233,183 225,184 223,184 215,186 205,187 199,188 191,189 186,189 184,188" fill="none" stroke="#777777" stroke-width="2" stroke-linecap="round" stroke-linejoin="round" />
  <polyline points="224,168 235,172 240,173 244,174 247,174 250,176 253,176 256,177 257,178 257,179 257,179" fill="none" stroke="#777777" stroke-width="2" stroke-linecap="round" stroke-linejoin="round" />
  <polyline points="139,208 147,201 151,201 154,200 158,201 162,203 166,206 170,211 173,215 175,219 176,223 176,229 176,234 174,239 166,250 162,253 157,254 154,255 149,254 144,253 139,250 133,247 128,244 124,240 122,235 121,229 122,224 125,218 129,213 135,208 141,204 147,200 152,199" fill="none" stroke="#777777" stroke-width="2" stroke-linecap="round" stroke-linejoin="round" />
  <polyline points="221,205 228,197 233,196 238,195 243,195 249,195 254,196 258,197 264,201 268,204 271,208 273,212 274,217 274,223 272,231 268,237 264,242 259,247 254,252 248,255 242,256 236,256 229,254 222,251 217,247 215,245 213,239 213,233 215,225 220,218 227,211 233,206 240,202 248,199 251,199" fill="none" stroke="#777777" stroke-width="2" stroke-linecap="round" stroke-linejoin="round" />
  <polyline points="207,190 195,196 188,203 181,210 174,217 167,224 164,228 157,235 155,237 153,239" fill="none" stroke="#777777" stroke-width="2" stroke-linecap="round" stroke-linejoin="round" />
  <polyline points="194,183 205,192 213,198 222,205 231,211 239,216 247,221 254,226 259,230 263,234 266,235" fill="none" stroke="#777777" stroke-width="2" stroke-linecap="round" stroke-linejoin="round" />
  <polyline points="152,233 148,226 147,223 146,221 146,213 147,207 148,203 150,199 151,196" fill="none" stroke="#777777" stroke-width="2" stroke-linecap="round" stroke-linejoin="round" />
  <polyline points="164,224 152,229 149,230 148,230 150,230 154,229 161,228 165,227 174,226 181,226 191,226 195,227" fill="none" stroke="#777777" stroke-width="2" stroke-linecap="round" stroke-linejoin="round" />
  <polyline points="164,225 161,240 160,247 159,253 159,257 160,259" fill="none" stroke="#777777" stroke-width="2" stroke-linecap="round" stroke-linejoin="round" />
  <polyline points="162,225 150,229 138,233 129,234 121,234 116,232 113,229 112,228" fill="none" stroke="#777777" stroke-width="2" stroke-linecap="round" stroke-linejoin="round" />
  <polyline points="155,234 162,222 170,213 174,209 177,205 179,203 180,203" fill="none" stroke="#777777" stroke-width="2" stroke-linecap="round" stroke-linejoin="round" />
  <polyline points="154,224 143,236 140,240 136,246 132,250 131,251" fill="none" stroke="#777777" stroke-width="2" stroke-linecap="round" stroke-linejoin="round" />
  <polyline points="157,221 147,219 140,215 136,211 133,205 130,203" fill="none" stroke="#777777" stroke-width="2" stroke-linecap="round" stroke-linejoin="round" />
  <polyline points="249,228 257,221 260,219 265,213 271,208 277,201 279,200" fill="none" stroke="#777777" stroke-width="2" stroke-linecap="round" stroke-linejoin="round" />
  <polyline points="251,221 246,229 243,233 235,241 226,250 217,258 210,265 207,268" fill="none" stroke="#777777" stroke-width="2" stroke-linecap="round" stroke-linejoin="round" />
  <polyline points="246,225 252,242 255,250 259,256 260,259" fill="none" stroke="#777777" stroke-width="2" stroke-linecap="round" stroke-linejoin="round" />
  <polyline points="254,228 252,216 254,205 257,197 260,192 261,191 261,188" fill="none" stroke="#777777" stroke-width="2" stroke-linecap="round" stroke-linejoin="round" />
  <polyline points="258,216 246,219 239,222 232,225 218,229 211,230 210,230" fill="none" stroke="#777777" stroke-width="2" stroke-linecap="round" stroke-linejoin="round" />
  <polyline points="185,182 175,181 170,183 166,187 160,191 155,195 151,197 147,199 145,199 143,200" fill="none" stroke="#777777" stroke-width="2" stroke-linecap="round" stroke-linejoin="round" />
  <polyline points="166,181 186,178 192,177 202,176 213,176 223,176 233,177 243,178 252,179 260,181 263,182 270,183 272,183" fill="none" stroke="#777777" stroke-width="2" stroke-linecap="round" stroke-linejoin="round" />
  <polyline points="199,188 215,183 224,184 234,186 243,187 248,189 260,192 266,196 268,198 272,201 274,202" fill="none" stroke="#777777" stroke-width="2" stroke-linecap="round" stroke-linejoin="round" />
  <polyline points="267,200 252,204 247,205 230,210 219,212 208,212 195,211 184,210 175,208 168,207" fill="none" stroke="#777777" stroke-width="2" stroke-linecap="round" stroke-linejoin="round" />
  <polyline points="178,186 188,192 191,194 194,197 197,201 199,206 201,213 201,218 202,222 203,223 206,225 207,225" fill="none" stroke="#777777" stroke-width="2" stroke-linecap="round" stroke-linejoin="round" />
  <polyline points="184,216 196,217 201,217 207,217 211,218 214,219 214,219" fill="none" stroke="#777777" stroke-width="2" stroke-linecap="round" stroke-linejoin="round" />
  <polyline points="234,217 228,226 223,227 217,227 210,227 203,227 194,227 190,227 177,227 167,227 160,228 156,228" fill="none" stroke="#777777" stroke-width="2" stroke-linecap="round" stroke-linejoin="round" />
  <polyline points="199,214 204,222 203,224 202,225 198,227 196,229 192,229 189,229 186,227 185,225 185,223 188,220 192,216 193,214" fill="none" stroke="#777777" stroke-width="2" stroke-linecap="round" stroke-linejoin="round" />
</svg>