<svg xmlns="http://www.w3.org/2000/svg" viewBox="0 0 400 400" width="400" height="400">
  <polyline points="63,225 63,228 63,231 63,233 63,242 63,245 63,246 63,248 63,249 63,250 63,252 63,254 63,255 63,256 63,257 63,258 63,259 63,260 63,261 63,262" fill="none" stroke="currentColor" stroke-width="2" stroke-linecap="round" stroke-linejoin="round" />
  <polyline points="58,254 58,263 58,267 58,270 58,271 58,272 58,273 58,275 58,277 58,278 58,279 58,280 58,281" fill="none" stroke="currentColor" stroke-width="2" stroke-linecap="round" stroke-linejoin="round" />
  <polyline points="61,296 65,300 71,301 77,302 82,302 87,302 92,302 95,302 99,300 102,297 106,296 110,294 113,294 116,292 118,291 120,290 121,289 122,287 123,285 123,283 124,281 124,278 124,277 124,275 124,272 122,270 119,266 117,266 115,265 114,265 112,263 112,262 110,261 109,260 109,259 108,257 108,256 108,253" fill="none" stroke="currentColor" stroke-width="2" stroke-linecap="round" stroke-linejoin="round" />
  <polyline points="64,218 65,216 72,216 80,213 87,213 95,213 102,213 108,214 112,217 114,221 115,227 115,232 115,235 115,237 115,238 115,239 117,242 119,243 122,246 123,246 123,248 124,250 124,251 124,253 124,255 124,256 124,257" fill="none" stroke="currentColor" stroke-width="2" stroke-linecap="round" stroke-linejoin="round" />
  <polyline points="275,216 270,221 270,223 270,225 269,228 269,231 267,232 266,233 264,236 264,237 263,238 263,240 262,242 261,243 261,245 261,246 261,247 261,248" fill="none" stroke="currentColor" stroke-width="2" stroke-linecap="round" stroke-linejoin="round" />
  <polyline points="263,254 265,262 265,267 265,273 265,275 265,276 266,277 266,278 267,279 268,278 269,279 271,280 272,281 274,281 275,281" fill="none" stroke="currentColor" stroke-width="2" stroke-linecap="round" stroke-linejoin="round" />
  <polyline points="276,301 279,296 281,296 285,296 287,296 291,296 295,295 298,293 301,292 302,292" fill="none" stroke="currentColor" stroke-width="2" stroke-linecap="round" stroke-linejoin="round" />
  <polyline points="298,292 307,290 311,289 315,287 318,285 321,285 323,284 325,283 325,282 326,281 327,278 329,277 331,275 333,273 335,271 336,270 337,268 337,267" fill="none" stroke="currentColor" stroke-width="2" stroke-linecap="round" stroke-linejoin="round" />
  <polyline points="290,203 292,202 297,202 306,202 315,202 321,202 327,202 332,202 336,203 338,206 339,210 340,215 340,220 341,222 341,225 341,226 341,229 341,231 341,233 341,235 341,236 341,237 341,238 340,242 338,245" fill="none" stroke="currentColor" stroke-width="2" stroke-linecap="round" stroke-linejoin="round" />
  <polyline points="343,259 342,244 342,238 342,236 342,234" fill="none" stroke="currentColor" stroke-width="2" stroke-linecap="round" stroke-linejoin="round" />
  <polyline points="129,256 138,258 142,258 148,258 155,258 161,258 166,258 170,258 174,258 179,258 183,258 187,257 189,256 192,255 194,255 197,254 201,253 204,252 207,252 211,251 215,251 220,251 224,251 229,250 233,250 237,250 241,250 245,250 249,250 252,250 254,250 256,250 257,250 259,250 261,250 264,250" fill="none" stroke="currentColor" stroke-width="2" stroke-linecap="round" stroke-linejoin="round" />
  <polyline points="54,245 52,245 51,245 50,245 49,245 48,245 47,245 46,245 45,245 44,245 44,244 43,244 42,243 40,243 39,243 39,242 39,240" fill="none" stroke="currentColor" stroke-width="2" stroke-linecap="round" stroke-linejoin="round" />
  <polyline points="46,237 41,233 39,231 37,228 35,225 33,223 32,221 31,220 30,218 30,217 30,216 30,215 31,214 32,212 33,211 33,210 34,209 35,207" fill="none" stroke="currentColor" stroke-width="2" stroke-linecap="round" stroke-linejoin="round" />
  <polyline points="44,193 39,191 39,187 39,183 39,178 39,173 40,171 40,168 42,168 42,167 43,168" fill="none" stroke="currentColor" stroke-width="2" stroke-linecap="round" stroke-linejoin="round" />
  <polyline points="339,251 343,251 347,251 351,251 353,251 356,250 358,250 359,249 360,249 361,249 362,249 362,248 363,246 365,242 367,238 368,235 368,232 369,230 370,229 370,227" fill="none" stroke="currentColor" stroke-width="2" stroke-linecap="round" stroke-linejoin="round" />
  <polyline points="378,220 376,214 376,209 376,203 376,200 376,196 376,192 376,188 376,185 374,182 372,181" fill="none" stroke="currentColor" stroke-width="2" stroke-linecap="round" stroke-linejoin="round" />
  <polyline points="387,182 386,176 385,173 382,171 380,168 377,166 375,165 372,162 371,161 369,159 367,157 366,156 365,155 363,155 361,153 360,153" fill="none" stroke="currentColor" stroke-width="2" stroke-linecap="round" stroke-linejoin="round" />
  <polyline points="381,142 375,140 373,140 372,139 371,135 370,129 369,124 369,120 369,116 369,113 369,111 369,109" fill="none" stroke="currentColor" stroke-width="2" stroke-linecap="round" stroke-linejoin="round" />
  <polyline points="370,110 363,108 361,108 357,108 353,108 347,108 341,110 336,111 331,112 325,113 320,114 315,114 310,115 305,115 300,115 296,115 292,115 288,115 283,115 278,115 276,115" fill="none" stroke="currentColor" stroke-width="2" stroke-linecap="round" stroke-linejoin="round" />
  <polyline points="372,156 374,151 375,147 375,143 376,139 376,136 376,133 373,132 369,131 365,130 361,129 357,128 353,128 347,128 341,127 334,126 327,124 321,123 318,123" fill="none" stroke="currentColor" stroke-width="2" stroke-linecap="round" stroke-linejoin="round" />
  <polyline points="346,112 339,108 334,106 326,105 318,105 308,105 295,105 282,105 273,105 266,103 259,101 254,98 253,96 253,94" fill="none" stroke="currentColor" stroke-width="2" stroke-linecap="round" stroke-linejoin="round" />
  <polyline points="258,89 254,87 252,87 250,84 248,81" fill="none" stroke="currentColor" stroke-width="2" stroke-linecap="round" stroke-linejoin="round" />
  <polyline points="50,159 51,155 53,150 60,142 70,133 78,131 83,132" fill="none" stroke="currentColor" stroke-width="2" stroke-linecap="round" stroke-linejoin="round" />
  <polyline points="98,124 102,124 104,122 105,119 106,118 107,116 109,114 110,112 112,111 112,108 113,108 113,107 114,106 115,104 118,102" fill="none" stroke="currentColor" stroke-width="2" stroke-linecap="round" stroke-linejoin="round" />
  <polyline points="120,92 120,89 122,86 125,82 129,77 135,73 139,72 144,72 149,71" fill="none" stroke="currentColor" stroke-width="2" stroke-linecap="round" stroke-linejoin="round" />
  <polyline points="161,68 171,67 181,67 190,66 199,64 208,63 214,63 223,62" fill="none" stroke="currentColor" stroke-width="2" stroke-linecap="round" stroke-linejoin="round" />
  <polyline points="206,63 211,64 218,64 227,64 239,64 252,64 259,64 266,64 271,67" fill="none" stroke="currentColor" stroke-width="2" stroke-linecap="round" stroke-linejoin="round" />
  <polyline points="253,71 258,77 261,80 265,83" fill="none" stroke="currentColor" stroke-width="2" stroke-linecap="round" stroke-linejoin="round" />
  <polyline points="107,129 112,130 117,130 123,131 131,133 141,134 150,134 159,134 166,134" fill="none" stroke="currentColor" stroke-width="2" stroke-linecap="round" stroke-linejoin="round" />
  <polyline points="172,123 172,118 173,113 174,107 175,101 177,98 177,97 178,94 179,93 181,92" fill="none" stroke="currentColor" stroke-width="2" stroke-linecap="round" stroke-linejoin="round" />
  <polyline points="190,81 191,76 191,73 191,67" fill="none" stroke="currentColor" stroke-width="2" stroke-linecap="round" stroke-linejoin="round" />
  <polyline points="165,129 168,129 174,129 183,130 192,130 203,130 214,130 222,130 229,130 234,130 239,130" fill="none" stroke="currentColor" stroke-width="2" stroke-linecap="round" stroke-linejoin="round" />
  <polyline points="238,131 241,129 243,129 247,125 250,121 253,117 256,116 259,114 261,114 264,113 266,111" fill="none" stroke="currentColor" stroke-width="2" stroke-linecap="round" stroke-linejoin="round" />
  <polyline points="177,136 175,139 175,144 179,150 185,157 192,161 199,165" fill="none" stroke="currentColor" stroke-width="2" stroke-linecap="round" stroke-linejoin="round" />
  <polyline points="206,191 207,198 207,203 211,208 215,213 220,217 223,220 224,221" fill="none" stroke="currentColor" stroke-width="2" stroke-linecap="round" stroke-linejoin="round" />
  <polyline points="205,169 203,173 203,178 204,190 208,203 211,207 213,212 214,213" fill="none" stroke="currentColor" stroke-width="2" stroke-linecap="round" stroke-linejoin="round" />
  <polyline points="220,238 222,246 222,252 222,260 222,262 222,264" fill="none" stroke="currentColor" stroke-width="2" stroke-linecap="round" stroke-linejoin="round" />
  <polyline points="230,215 227,225 227,237 225,250" fill="none" stroke="currentColor" stroke-width="2" stroke-linecap="round" stroke-linejoin="round" />
</svg>