<svg xmlns="http://www.w3.org/2000/svg" viewBox="0 0 400 400" width="400" height="400">
  <polyline points="220,142 219,141 212,140 199,140 183,140 164,140 151,144 143,148 135,152 124,159 115,165 107,172 102,179 98,187 96,196 94,207 94,214 94,225 95,234 99,244 101,252 105,259 109,267 115,272 122,278 133,283 144,285 159,285 178,285 197,285 214,285 226,285 231,285 235,284 241,279 252,272 262,267 269,261 273,255 277,248 281,237 286,224 292,210 296,195 297,186 297,178 297,174 296,170 293,167 289,164 285,162 281,160 275,159 271,157 267,156 262,154 256,153 249,151 246,149 243,149 240,148 240,147 238,147 235,145 233,145 233,144 232,144 231,144 229,144 229,143 226,143 224,142 222,142" fill="none" stroke="#777777" stroke-width="2" stroke-linecap="round" stroke-linejoin="round" />
  <polyline points="187,199 186,201 184,203 182,205 182,206 180,209 180,211 180,213 181,215 182,215 183,215 184,215 187,215 190,210 193,207 193,204 193,201 193,200 193,199 191,198 191,197 190,196 189,194 189,193 189,194 188,194 187,195 187,197 186,197" fill="none" stroke="#777777" stroke-width="2" stroke-linecap="round" stroke-linejoin="round" />
  <polyline points="192,163 192,164 192,168 192,177 192,184 193,191 193,196 193,197 193,198 193,199 193,200" fill="none" stroke="#777777" stroke-width="2" stroke-linecap="round" stroke-linejoin="round" />
  <polyline points="182,249 182,247 182,240 182,233 182,225 182,220 182,217 182,215 182,214 184,213 185,211 186,211" fill="none" stroke="#777777" stroke-width="2" stroke-linecap="round" stroke-linejoin="round" />
  <polyline points="119,169 120,169 121,169 126,171 133,177 136,179 137,179 136,179 134,179" fill="none" stroke="#777777" stroke-width="2" stroke-linecap="round" stroke-linejoin="round" />
  <polyline points="98,199 98,201" fill="none" stroke="#777777" stroke-width="2" stroke-linecap="round" stroke-linejoin="round" />
  <polyline points="103,203 105,203 106,203 107,203 108,203 109,203" fill="none" stroke="#777777" stroke-width="2" stroke-linecap="round" stroke-linejoin="round" />
  <polyline points="96,204 96,205 97,205 105,206 112,206 117,206 118,206" fill="none" stroke="#777777" stroke-width="2" stroke-linecap="round" stroke-linejoin="round" />
  <polyline points="108,254 111,252 115,250 119,247 124,245 130,242 135,237 141,233 141,232 142,232" fill="none" stroke="#777777" stroke-width="2" stroke-linecap="round" stroke-linejoin="round" />
  <polyline points="191,280 191,279 191,277 191,275 191,268 191,264 191,260 191,259 191,258" fill="none" stroke="#777777" stroke-width="2" stroke-linecap="round" stroke-linejoin="round" />
  <polyline points="266,261 266,260 264,258 259,256 255,254 253,252 252,252 251,252 250,251 248,248 247,247 246,246 245,246" fill="none" stroke="#777777" stroke-width="2" stroke-linecap="round" stroke-linejoin="round" />
  <polyline points="284,216 283,216 280,216 275,215 274,214 271,214 267,214 262,214 254,214 251,214 249,214" fill="none" stroke="#777777" stroke-width="2" stroke-linecap="round" stroke-linejoin="round" />
  <polyline points="274,160 273,161 270,163 267,167 261,169 258,171 251,176 246,178 243,180" fill="none" stroke="#777777" stroke-width="2" stroke-linecap="round" stroke-linejoin="round" />
  <polyline points="242,150 235,155 227,159 218,163 215,165 214,165" fill="none" stroke="#777777" stroke-width="2" stroke-linecap="round" stroke-linejoin="round" />
  <polyline points="188,144 188,145 188,147 188,148 188,150 188,151 188,152" fill="none" stroke="#777777" stroke-width="2" stroke-linecap="round" stroke-linejoin="round" />
  <polyline points="149,273 149,274 149,275 144,280 140,285 140,286 138,286" fill="none" stroke="#777777" stroke-width="2" stroke-linecap="round" stroke-linejoin="round" />
</svg>