<svg xmlns="http://www.w3.org/2000/svg" viewBox="0 0 400 400" width="400" height="400">
  <polyline points="216,46 209,58 205,64 200,69 196,74 193,79 190,83 187,88 186,92 184,95 183,97 183,99 183,100" fill="none" stroke="currentColor" stroke-width="2" stroke-linecap="round" stroke-linejoin="round" />
  <polyline points="226,50 222,62 222,64 222,65 222,67 222,70 222,76 223,78 223,82 223,86 224,89 224,91 224,93 224,94 224,94 224,95 224,95 224,95 224,96 224,96 224,97 224,97 223,99 222,100 221,102 219,103 218,104 217,104 215,105 212,105 211,105 208,105 202,103 198,103 196,103 194,103 193,102" fill="none" stroke="currentColor" stroke-width="2" stroke-linecap="round" stroke-linejoin="round" />
</svg>