<svg xmlns="http://www.w3.org/2000/svg" viewBox="0 0 400 400" width="400" height="400">
  <polyline points="176,185 179,198 179,202 180,208 162,297 104,328 106,326" fill="none" stroke="#777777" stroke-width="2" stroke-linecap="round" stroke-linejoin="round" />
  <polyline points="217,185 215,196 214,199 213,204 213,293 265,317" fill="none" stroke="#777777" stroke-width="2" stroke-linecap="round" stroke-linejoin="round" />
  <polyline points="172,187 169,197 168,197 167,198 139,231 126,203 115,206 91,182 107,136 94,122 112,85 140,67 177,64 221,57 252,63 267,84 303,115 299,147 299,177 279,209 257,223 222,208 220,182" fill="none" stroke="#777777" stroke-width="2" stroke-linecap="round" stroke-linejoin="round" />
  <polyline points="173,182 185,181 193,182 201,184 208,186 216,188 219,189" fill="none" stroke="#777777" stroke-width="2" stroke-linecap="round" stroke-linejoin="round" />
  <polyline points="114,327 128,327 138,328 149,327 161,327 177,325 196,324 213,323 231,324 246,325 261,328 272,331 282,333 289,335 295,336 299,335" fill="none" stroke="#777777" stroke-width="2" stroke-linecap="round" stroke-linejoin="round" />
</svg>