<svg xmlns="http://www.w3.org/2000/svg" viewBox="0 0 400 400" width="400" height="400">
  <polyline points="131,65 131,78 131,87 132,96 133,107 133,121 133,134 134,163 135,177 135,191 136,217 137,228 138,241 139,245 140,248 140,252" fill="none" stroke="#777777" stroke-width="2" stroke-linecap="round" stroke-linejoin="round" />
  <polyline points="167,72 167,84 168,90 169,105 170,118 170,144 168,169 167,180 165,200 165,209 165,217 166,230 167,234 168,238 170,244 170,247 171,249 172,251 172,252 172,252 171,252" fill="none" stroke="#777777" stroke-width="2" stroke-linecap="round" stroke-linejoin="round" />
  <polyline points="130,251 136,258 138,261 141,265 145,274 147,278 148,282 152,290" fill="none" stroke="#777777" stroke-width="2" stroke-linecap="round" stroke-linejoin="round" />
  <polyline points="163,267 158,275" fill="none" stroke="#777777" stroke-width="2" stroke-linecap="round" stroke-linejoin="round" />
  <polyline points="163,60 151,60 147,60 140,61 138,61 133,62 130,64 127,66" fill="none" stroke="#777777" stroke-width="2" stroke-linecap="round" stroke-linejoin="round" />
</svg>