<svg xmlns="http://www.w3.org/2000/svg" viewBox="0 0 400 400" width="400" height="400">
  <polyline points="211,98 196,96 183,97 164,101 146,108 132,116 122,123 114,131 109,139 106,147 101,160 99,174 99,187 102,200 107,213 113,225 122,235 132,242 144,245 158,245 173,243 189,238 202,233 211,228 217,222 222,216 228,205 234,196 239,186 244,177 248,167 251,154 251,141 248,130 245,122 242,116 238,111 236,109 234,108 233,107 232,107 226,107 217,107 211,107 207,107" fill="none" stroke="currentColor" stroke-width="2" stroke-linecap="round" stroke-linejoin="round" />
  <polyline points="187,88 187,102" fill="none" stroke="currentColor" stroke-width="2" stroke-linecap="round" stroke-linejoin="round" />
  <polyline points="234,105 229,117 227,123 225,130" fill="none" stroke="currentColor" stroke-width="2" stroke-linecap="round" stroke-linejoin="round" />
  <polyline points="258,161 248,161 242,161 237,160 233,160 231,160 229,159" fill="none" stroke="currentColor" stroke-width="2" stroke-linecap="round" stroke-linejoin="round" />
  <polyline points="236,199 222,200 216,200 208,200 200,200 193,199 187,200" fill="none" stroke="currentColor" stroke-width="2" stroke-linecap="round" stroke-linejoin="round" />
  <polyline points="209,230 196,227 191,227 185,226 179,226 173,225" fill="none" stroke="currentColor" stroke-width="2" stroke-linecap="round" stroke-linejoin="round" />
  <polyline points="155,240 144,233 139,231 136,229 133,227" fill="none" stroke="currentColor" stroke-width="2" stroke-linecap="round" stroke-linejoin="round" />
  <polyline points="122,236 122,219 124,207 124,197 124,188" fill="none" stroke="currentColor" stroke-width="2" stroke-linecap="round" stroke-linejoin="round" />
  <polyline points="103,143 112,148 119,150" fill="none" stroke="currentColor" stroke-width="2" stroke-linecap="round" stroke-linejoin="round" />
  <polyline points="160,112 165,121 169,128" fill="none" stroke="currentColor" stroke-width="2" stroke-linecap="round" stroke-linejoin="round" />
  <polyline points="144,110 152,124 156,131" fill="none" stroke="currentColor" stroke-width="2" stroke-linecap="round" stroke-linejoin="round" />
</svg>