<svg xmlns="http://www.w3.org/2000/svg" viewBox="0 0 400 400" width="400" height="400">
  <polyline points="92,272 86,281 86,285 88,288 90,291 93,292 95,293 97,293 100,292 104,290 107,287 110,285 114,281 114,278 114,276 113,273 112,270 111,268 106,266 103,265 99,266 91,271 88,275 86,279 86,284 89,289" fill="none" stroke="#777777" stroke-width="2" stroke-linecap="round" stroke-linejoin="round" />
  <polyline points="115,280 127,280 130,280 134,280 141,280 145,280 149,280 152,280 156,280 159,280 162,280 165,280 168,280 170,280 173,280 176,280 179,280 182,280 185,280 187,280 190,281 192,281 195,281 197,281 199,281 199,281 201,280 202,279" fill="none" stroke="#777777" stroke-width="2" stroke-linecap="round" stroke-linejoin="round" />
  <polyline points="205,275 201,285 203,288 208,291 212,291 216,289 221,284 222,281 223,277 222,273 220,270 217,269 209,270 205,272 202,276 199,279" fill="none" stroke="#777777" stroke-width="2" stroke-linecap="round" stroke-linejoin="round" />
  <polyline points="225,279 234,279 239,279 244,279 248,278 251,278 253,278 256,277 257,276" fill="none" stroke="#777777" stroke-width="2" stroke-linecap="round" stroke-linejoin="round" />
  <polyline points="259,250 260,264 260,269 260,272 260,272" fill="none" stroke="#777777" stroke-width="2" stroke-linecap="round" stroke-linejoin="round" />
  <polyline points="259,246 248,242 246,242 244,243 242,243 241,243 240,243 239,244 238,244 237,245 236,245 235,245 234,245 233,245 232,245 230,246 229,246 228,245" fill="none" stroke="#777777" stroke-width="2" stroke-linecap="round" stroke-linejoin="round" />
  <polyline points="210,224 217,232 221,237 223,242 225,245 227,245" fill="none" stroke="#777777" stroke-width="2" stroke-linecap="round" stroke-linejoin="round" />
  <polyline points="209,223 198,224 196,224 194,224 189,224 187,224 185,224 182,224 180,224 177,224 175,224 172,224 170,224 168,224 165,224 163,224 161,224 156,225 155,225 152,225 150,225 148,225 145,225 143,225 139,224 138,224 137,224 134,224 131,225 129,226 126,226 126,226 127,226" fill="none" stroke="#777777" stroke-width="2" stroke-linecap="round" stroke-linejoin="round" />
  <polyline points="126,224 120,233 117,237 114,241 112,243 111,244 111,244" fill="none" stroke="#777777" stroke-width="2" stroke-linecap="round" stroke-linejoin="round" />
  <polyline points="113,242 103,243 101,243 99,244 96,244 92,245 88,245 84,246 81,247 77,247 74,248 70,248 70,248" fill="none" stroke="#777777" stroke-width="2" stroke-linecap="round" stroke-linejoin="round" />
  <polyline points="68,249 64,258 63,263 60,273 59,276 59,277 60,276" fill="none" stroke="#777777" stroke-width="2" stroke-linecap="round" stroke-linejoin="round" />
  <polyline points="62,280 78,279 88,277" fill="none" stroke="#777777" stroke-width="2" stroke-linecap="round" stroke-linejoin="round" />
  <polyline points="138,232 130,239 129,240 129,240" fill="none" stroke="#777777" stroke-width="2" stroke-linecap="round" stroke-linejoin="round" />
  <polyline points="136,233 146,230 151,230 155,230 158,230" fill="none" stroke="#777777" stroke-width="2" stroke-linecap="round" stroke-linejoin="round" />
  <polyline points="137,241 147,240 152,240" fill="none" stroke="#777777" stroke-width="2" stroke-linecap="round" stroke-linejoin="round" />
  <polyline points="162,231 154,240 153,243 151,245" fill="none" stroke="#777777" stroke-width="2" stroke-linecap="round" stroke-linejoin="round" />
  <polyline points="187,232 179,242 178,243 178,242" fill="none" stroke="#777777" stroke-width="2" stroke-linecap="round" stroke-linejoin="round" />
  <polyline points="186,233 199,232 203,232 209,230" fill="none" stroke="#777777" stroke-width="2" stroke-linecap="round" stroke-linejoin="round" />
  <polyline points="186,243 196,242 200,241 204,240" fill="none" stroke="#777777" stroke-width="2" stroke-linecap="round" stroke-linejoin="round" />
  <polyline points="211,230 205,237 202,243 199,247" fill="none" stroke="#777777" stroke-width="2" stroke-linecap="round" stroke-linejoin="round" />
  <polyline points="69,258 79,259" fill="none" stroke="#777777" stroke-width="2" stroke-linecap="round" stroke-linejoin="round" />
  <polyline points="81,248 79,258 79,260 79,260" fill="none" stroke="#777777" stroke-width="2" stroke-linecap="round" stroke-linejoin="round" />
</svg>