<svg xmlns="http://www.w3.org/2000/svg" viewBox="0 0 400 400" width="400" height="400">
  <polyline points="294,141 295,158 295,172 295,183 295,193 295,201 295,207" fill="none" stroke="currentColor" stroke-width="2" stroke-linecap="round" stroke-linejoin="round" />
  <polyline points="291,137 283,143 281,145 279,147 278,149 274,154 272,156 270,159 268,161 266,163 264,166 260,171 258,172 256,175 253,177 251,180 245,186 241,188 238,191 234,193 230,196 226,197 223,199 220,200 216,200 213,201 209,202 205,203 201,203 197,203 192,203 183,204 178,205 174,204 170,204 166,202 161,201 157,200 152,199 145,195 142,192 139,189 137,187 133,179 131,175 130,172 129,169 129,164 130,159 131,155 132,152 134,149 136,146 139,144 142,142 145,140 150,139 155,138 158,138 162,138 166,138 171,139 174,140 182,143 186,144 194,147 198,150 202,152 206,154 209,157 212,159 217,162 221,165 225,168 229,170 237,175 243,179 246,181 249,183 252,185 255,186 260,189 263,190 266,192 268,193 274,194 276,194 278,195 280,195 282,196 284,197 286,198 288,199 290,200 293,201 293,201 294,201 294,201 295,202 294,203" fill="none" stroke="currentColor" stroke-width="2" stroke-linecap="round" stroke-linejoin="round" />
  <polyline points="279,160 287,152 291,151 295,150" fill="none" stroke="currentColor" stroke-width="2" stroke-linecap="round" stroke-linejoin="round" />
  <polyline points="280,167 289,161 293,160" fill="none" stroke="currentColor" stroke-width="2" stroke-linecap="round" stroke-linejoin="round" />
  <polyline points="282,176 293,173 297,173 297,173" fill="none" stroke="currentColor" stroke-width="2" stroke-linecap="round" stroke-linejoin="round" />
  <polyline points="283,183 292,189" fill="none" stroke="currentColor" stroke-width="2" stroke-linecap="round" stroke-linejoin="round" />
  <polyline points="154,154 163,155" fill="none" stroke="currentColor" stroke-width="2" stroke-linecap="round" stroke-linejoin="round" />
  <polyline points="152,153 162,151 164,151 166,152" fill="none" stroke="currentColor" stroke-width="2" stroke-linecap="round" stroke-linejoin="round" />
  <polyline points="178,173 192,169 197,167 200,165 202,166" fill="none" stroke="currentColor" stroke-width="2" stroke-linecap="round" stroke-linejoin="round" />
  <polyline points="178,180 189,185 191,186 192,186" fill="none" stroke="currentColor" stroke-width="2" stroke-linecap="round" stroke-linejoin="round" />
  <polyline points="187,186 198,187 200,187" fill="none" stroke="currentColor" stroke-width="2" stroke-linecap="round" stroke-linejoin="round" />
  <polyline points="204,165 205,177 205,183 204,186" fill="none" stroke="currentColor" stroke-width="2" stroke-linecap="round" stroke-linejoin="round" />
  <polyline points="191,175 200,173" fill="none" stroke="currentColor" stroke-width="2" stroke-linecap="round" stroke-linejoin="round" />
  <polyline points="191,179 203,175 204,175" fill="none" stroke="currentColor" stroke-width="2" stroke-linecap="round" stroke-linejoin="round" />
  <polyline points="156,147 164,152 165,150 165,149 164,148 162,147 160,147 158,149 157,154" fill="none" stroke="currentColor" stroke-width="2" stroke-linecap="round" stroke-linejoin="round" />
  <polyline points="160,150 152,154 153,155 156,156 160,154 162,153 163,150 161,148 159,148 157,148 155,152 155,152" fill="none" stroke="currentColor" stroke-width="2" stroke-linecap="round" stroke-linejoin="round" />
  <polyline points="157,145 152,153" fill="none" stroke="currentColor" stroke-width="2" stroke-linecap="round" stroke-linejoin="round" />
  <polyline points="135,169 145,172" fill="none" stroke="currentColor" stroke-width="2" stroke-linecap="round" stroke-linejoin="round" />
</svg>