<svg xmlns="http://www.w3.org/2000/svg" viewBox="0 0 400 400" width="400" height="400">
  <polyline points="171,85 164,97 161,105 157,117 151,135 149,143 147,147 147,150 147,151 147,151 147,151" fill="none" stroke="currentColor" stroke-width="2" stroke-linecap="round" stroke-linejoin="round" />
  <polyline points="179,96 182,107 183,114 186,122 189,131 192,138 196,145 197,148" fill="none" stroke="currentColor" stroke-width="2" stroke-linecap="round" stroke-linejoin="round" />
  <polyline points="151,147 152,158 153,167 153,173 154,178 154,184 154,189 154,194 154,200 153,204 153,210 153,217 153,223 153,230 153,237 152,246 152,253 151,260 151,268 149,283 148,290 148,296 146,308 146,314 145,321 144,334 144,339 144,345 144,348 144,351 144,354 144,356 144,360 144,362 144,366 145,367 145,369 145,370 145,371 145,374 146,376 146,378 146,380 146,381 146,384 146,385 146,387 146,388 146,390 147,391 147,394 148,396 148,397 148,397 148,398 148,398 149,398 150,397 152,397 160,397 163,396 167,395 171,395 175,395 178,394 181,394 188,394 190,394 195,393 197,393 198,393" fill="none" stroke="currentColor" stroke-width="2" stroke-linecap="round" stroke-linejoin="round" />
  <polyline points="194,153 190,166 190,171 189,179 189,186 189,193 189,209 189,217 189,225 191,239 192,253 193,260 194,267 195,273 196,278 196,283 198,296 199,298 199,300 199,303 199,305 199,307 199,314 199,316 199,319 200,323 200,327 200,338 200,347 200,352 199,362 199,372 198,380 197,385 197,389 197,391 197,396 197,397 197,398" fill="none" stroke="currentColor" stroke-width="2" stroke-linecap="round" stroke-linejoin="round" />
  <polyline points="153,140 162,140 167,139 173,137 179,136 183,137 187,137" fill="none" stroke="currentColor" stroke-width="2" stroke-linecap="round" stroke-linejoin="round" />
  <polyline points="166,109 175,107 176,107" fill="none" stroke="currentColor" stroke-width="2" stroke-linecap="round" stroke-linejoin="round" />
  <polyline points="168,97 175,95 177,94 179,94 180,95 183,97 183,98 184,97" fill="none" stroke="currentColor" stroke-width="2" stroke-linecap="round" stroke-linejoin="round" />
  <polyline points="178,111 178,99 179,98 178,101 177,103 177,104 176,105 176,105 178,100 179,96 180,94 182,90 182,90" fill="none" stroke="currentColor" stroke-width="2" stroke-linecap="round" stroke-linejoin="round" />
  <polyline points="173,106 176,93 177,87 178,81 178,78 178,76 177,78 176,81 175,86 172,92 171,94 166,107 164,109 165,108" fill="none" stroke="currentColor" stroke-width="2" stroke-linecap="round" stroke-linejoin="round" />
</svg>