<svg xmlns="http://www.w3.org/2000/svg" viewBox="0 0 400 400" width="400" height="400">
  <polyline points="157,115 157,115 157,115 158,116 161,119 165,124 169,130 175,136 180,142 184,150 189,158 193,167 196,174 198,180 200,186 204,193 208,199 210,202 210,203 210,204 211,205 211,206 212,207 213,208 214,209 215,210 217,211 218,212 219,213 220,214 220,214 221,215 222,215 223,216 224,217 225,218 227,219 228,220 230,222 231,223 233,225 234,226 234,226 234,226" fill="none" stroke="#777777" stroke-width="2" stroke-linecap="round" stroke-linejoin="round" />
</svg>