<svg xmlns="http://www.w3.org/2000/svg" viewBox="0 0 400 400" width="400" height="400">
  <polyline points="198,142 192,140 184,139 176,139 167,141 158,145 145,159 129,187 112,226 104,261 106,280 116,289 129,293 146,295 168,296 189,296 208,293 226,285 239,273 247,260 252,244 252,225 248,205 239,182 228,159 218,143 199,125 176,108 154,96 146,93" fill="none" stroke="#777777" stroke-width="2" stroke-linecap="round" stroke-linejoin="round" />
  <polyline points="190,129 189,129 189,130 187,134 185,143 181,156 176,173 173,187 172,197 172,200 172,201 172,201 176,205 190,217 203,230 213,238 220,241 222,241 224,242" fill="none" stroke="#777777" stroke-width="2" stroke-linecap="round" stroke-linejoin="round" />
</svg>