<svg xmlns="http://www.w3.org/2000/svg" viewBox="0 0 400 400" width="400" height="400">
  <polyline points="188,85 187,99 187,107 187,115 189,124 189,132 190,142 190,152 190,163 189,172 188,180 187,186 187,190 186,193 186,195 185,197 185,198 185,200 185,201 186,202 186,203 186,203 186,203 189,202" fill="none" stroke="currentColor" stroke-width="2" stroke-linecap="round" stroke-linejoin="round" />
  <polyline points="250,78 247,89 247,92 247,95 248,102 248,181 251,197" fill="none" stroke="currentColor" stroke-width="2" stroke-linecap="round" stroke-linejoin="round" />
  <polyline points="177,198 167,202 163,202 159,204 155,205 152,208 147,211 144,213 141,216 138,219 136,221 135,224 134,225 133,227 133,230 133,233 133,236 132,239 133,242 132,245 132,248 151,266 171,266 150,288 143,322 164,356 218,362 274,358 294,321 298,284 275,262 278,262 305,243 302,216 276,196 237,191" fill="none" stroke="currentColor" stroke-width="2" stroke-linecap="round" stroke-linejoin="round" />
  <polyline points="218,247 207,247 206,248 204,249 200,252 196,257 193,262 190,269 189,274 189,278 189,279 189,282 224,295 240,282 241,243 215,235" fill="none" stroke="currentColor" stroke-width="2" stroke-linecap="round" stroke-linejoin="round" />
  <polyline points="191,205 205,204 207,203 207,203 212,202 255,197" fill="none" stroke="currentColor" stroke-width="2" stroke-linecap="round" stroke-linejoin="round" />
  <polyline points="199,92 210,95 213,96 215,95 221,94 227,92 234,90 239,89 244,88 249,88 254,89 257,90 260,91 262,92 264,92 266,93 267,93" fill="none" stroke="currentColor" stroke-width="2" stroke-linecap="round" stroke-linejoin="round" />
  <polyline points="194,105 185,96 184,94 186,97 184,92 174,55 196,27 248,23 270,23 269,73 270,94 261,99" fill="none" stroke="currentColor" stroke-width="2" stroke-linecap="round" stroke-linejoin="round" />
  <polyline points="180,92 170,90 167,90 162,90 155,89 147,89 140,90 133,90 128,91 126,92 126,92" fill="none" stroke="currentColor" stroke-width="2" stroke-linecap="round" stroke-linejoin="round" />
  <polyline points="189,49 174,51 166,53 159,55 153,57 147,59 143,61 141,61 141,61" fill="none" stroke="currentColor" stroke-width="2" stroke-linecap="round" stroke-linejoin="round" />
  <polyline points="190,33 177,30 173,30 168,30 160,31 152,33 145,34 138,35 135,36" fill="none" stroke="currentColor" stroke-width="2" stroke-linecap="round" stroke-linejoin="round" />
  <polyline points="268,41 277,43 281,44 280,45 290,46 313,45" fill="none" stroke="currentColor" stroke-width="2" stroke-linecap="round" stroke-linejoin="round" />
  <polyline points="283,65 293,67 297,68 301,68 310,68 317,67 320,67" fill="none" stroke="currentColor" stroke-width="2" stroke-linecap="round" stroke-linejoin="round" />
  <polyline points="287,82 306,82 311,82" fill="none" stroke="currentColor" stroke-width="2" stroke-linecap="round" stroke-linejoin="round" />
  <polyline points="201,99 203,110 203,116 204,121 204,132 205,143 205,154 206,168 207,184 208,198 210,212" fill="none" stroke="currentColor" stroke-width="2" stroke-linecap="round" stroke-linejoin="round" />
  <polyline points="224,110 224,121 225,127 225,135 225,154 225,173 227,194 228,200 229,211 229,214" fill="none" stroke="currentColor" stroke-width="2" stroke-linecap="round" stroke-linejoin="round" />
  <polyline points="232,104 232,120 232,129 232,139 233,161 234,186 237,207" fill="none" stroke="currentColor" stroke-width="2" stroke-linecap="round" stroke-linejoin="round" />
  <polyline points="252,100 252,117 252,124 252,131 251,151 251,175 252,186" fill="none" stroke="currentColor" stroke-width="2" stroke-linecap="round" stroke-linejoin="round" />
  <polyline points="259,240 259,252 260,254 261,257 261,263 262,269 262,274 262,279 261,283 260,286 259,290 257,291 256,295 254,298 251,301 249,304 246,306 244,308 242,308 240,309 240,309 239,309 239,309 239,309 239,309 239,309 241,308 242,309 245,309 279,290 270,234 251,223" fill="none" stroke="currentColor" stroke-width="2" stroke-linecap="round" stroke-linejoin="round" />
</svg>