<svg xmlns="http://www.w3.org/2000/svg" viewBox="0 0 400 400" width="400" height="400">
  <polyline points="260,79 254,89 251,94 246,105 197,241 193,262" fill="none" stroke="#777777" stroke-width="2" stroke-linecap="round" stroke-linejoin="round" />
  <polyline points="299,100 292,115 290,120 285,131 240,227 224,281 224,283" fill="none" stroke="#777777" stroke-width="2" stroke-linecap="round" stroke-linejoin="round" />
  <polyline points="196,257 196,273 196,277 196,281 196,288 198,325 223,297 237,270" fill="none" stroke="#777777" stroke-width="2" stroke-linecap="round" stroke-linejoin="round" />
  <polyline points="260,94 268,99 272,102 275,98 309,115 319,126 323,116 341,71 334,66 272,40 271,41 260,102" fill="none" stroke="#777777" stroke-width="2" stroke-linecap="round" stroke-linejoin="round" />
  <polyline points="201,334 202,343 203,345 204,346 205,347 207,347 209,345 211,345 211,343" fill="none" stroke="#777777" stroke-width="2" stroke-linecap="round" stroke-linejoin="round" />
  <polyline points="197,255 209,255 211,255 210,255 215,257 240,275" fill="none" stroke="#777777" stroke-width="2" stroke-linecap="round" stroke-linejoin="round" />
  <polyline points="300,79 299,91 298,95 298,90 298,97 296,73 284,110 278,78" fill="none" stroke="#777777" stroke-width="2" stroke-linecap="round" stroke-linejoin="round" />
</svg>