<svg xmlns="http://www.w3.org/2000/svg" viewBox="0 0 400 400" width="400" height="400">
  <polyline points="251,143 246,135 245,134 246,134 241,135 158,140 131,207 138,283 198,297 251,283 283,245 290,207 280,167 241,142 195,142" fill="none" stroke="currentColor" stroke-width="2" stroke-linecap="round" stroke-linejoin="round" />
  <polyline points="217,182 217,195 217,198 217,200 217,205 217,207 217,208 217,209 217,210 217,210 218,210" fill="none" stroke="currentColor" stroke-width="2" stroke-linecap="round" stroke-linejoin="round" />
  <polyline points="207,255 206,266 205,268 205,269 205,273 204,275 204,277 204,277 205,278 206,278" fill="none" stroke="currentColor" stroke-width="2" stroke-linecap="round" stroke-linejoin="round" />
  <polyline points="244,212 256,213 258,213 256,213 259,212 262,210" fill="none" stroke="currentColor" stroke-width="2" stroke-linecap="round" stroke-linejoin="round" />
  <polyline points="153,222 167,222 171,222 175,222 180,222 186,222 191,221 196,220" fill="none" stroke="currentColor" stroke-width="2" stroke-linecap="round" stroke-linejoin="round" />
  <polyline points="227,128 217,125 215,125 217,125 213,126 217,129 209,136" fill="none" stroke="currentColor" stroke-width="2" stroke-linecap="round" stroke-linejoin="round" />
  <polyline points="224,235 222,221 221,219 221,227 220,226 224,232 223,235 223,193 221,180 200,233 224,168 244,184 250,185" fill="none" stroke="currentColor" stroke-width="2" stroke-linecap="round" stroke-linejoin="round" />
  <polyline points="206,235 219,239 221,239 220,239 225,239 262,235 274,234" fill="none" stroke="currentColor" stroke-width="2" stroke-linecap="round" stroke-linejoin="round" />
  <polyline points="264,214 269,224 271,226 273,227 278,230 263,268" fill="none" stroke="currentColor" stroke-width="2" stroke-linecap="round" stroke-linejoin="round" />
</svg>