<svg xmlns="http://www.w3.org/2000/svg" viewBox="0 0 400 400" width="400" height="400">
  <polyline points="149,81 146,90 145,96 144,104 143,111 145,117 148,121 153,124 157,125 162,124 165,123 168,121 171,119 172,115 173,112 171,108 170,105 168,103 166,101 164,99 162,97 160,95 160,94 159,94 159,94 159,94" fill="none" stroke="currentColor" stroke-width="2" stroke-linecap="round" stroke-linejoin="round" />
  <polyline points="232,90 226,100 225,102 224,105 224,110 227,117 231,120 237,122 244,123 252,123 258,123 264,122 268,120 271,117 272,116 271,114 270,112 267,109 264,106 258,102 255,100 252,99 250,98 246,96 246,96" fill="none" stroke="currentColor" stroke-width="2" stroke-linecap="round" stroke-linejoin="round" />
  <polyline points="162,232 166,220 169,214 174,208 179,201 185,196 192,191 198,189 204,188 210,186 215,187 221,190 225,192 229,195 234,199 236,202 240,207 242,212 243,216 245,220 246,224 250,232 251,233 254,240 256,240 257,240 257,240" fill="none" stroke="currentColor" stroke-width="2" stroke-linecap="round" stroke-linejoin="round" />
</svg>