<svg xmlns="http://www.w3.org/2000/svg" viewBox="0 0 400 400" width="400" height="400">
  <polyline points="149,201 162,200 167,200 172,199 176,198 181,198 185,197 188,196 192,196 194,196 197,196 199,196" fill="none" stroke="currentColor" stroke-width="2" stroke-linecap="round" stroke-linejoin="round" />
  <polyline points="179,197 177,209 177,213 177,218 178,222 179,224 180,227 180,228 182,230 183,231 185,232 188,232 192,232 196,231" fill="none" stroke="currentColor" stroke-width="2" stroke-linecap="round" stroke-linejoin="round" />
  <polyline points="257,225 248,222 242,221 237,221 229,222 219,223 209,225 200,229 193,233 190,238 190,243 193,253 199,260 206,265 211,267 219,267 231,264 240,260 245,257 250,252 253,248 255,243 255,237 254,232 253,228 251,225 245,221 241,219" fill="none" stroke="currentColor" stroke-width="2" stroke-linecap="round" stroke-linejoin="round" />
  <polyline points="222,248 221,247" fill="none" stroke="currentColor" stroke-width="2" stroke-linecap="round" stroke-linejoin="round" />
  <polyline points="225,251 233,245 242,239 251,234 254,232" fill="none" stroke="currentColor" stroke-width="2" stroke-linecap="round" stroke-linejoin="round" />
  <polyline points="227,245 227,232 228,227 229,223" fill="none" stroke="currentColor" stroke-width="2" stroke-linecap="round" stroke-linejoin="round" />
  <polyline points="225,244 216,243 205,241 193,241 188,241" fill="none" stroke="currentColor" stroke-width="2" stroke-linecap="round" stroke-linejoin="round" />
  <polyline points="224,242 216,253 211,260" fill="none" stroke="currentColor" stroke-width="2" stroke-linecap="round" stroke-linejoin="round" />
  <polyline points="223,253 232,257 238,260 242,264" fill="none" stroke="currentColor" stroke-width="2" stroke-linecap="round" stroke-linejoin="round" />
  <polyline points="180,228 167,228 164,228 160,228 158,228 154,228 151,228 148,228 146,228 144,228 143,228 142,228 142,228 141,228 140,229 139,229 138,229 138,230 138,231 138,232 138,232 138,233 138,235 138,236 139,238 140,239 140,240 140,241 141,242 141,242 142,243 143,244 144,244 145,244 147,244 148,244 150,245 152,245 155,245 157,245 161,244 164,244 167,244 168,243" fill="none" stroke="currentColor" stroke-width="2" stroke-linecap="round" stroke-linejoin="round" />
  <polyline points="168,243 177,243 180,243 182,243 187,243 190,243 194,242 196,242" fill="none" stroke="currentColor" stroke-width="2" stroke-linecap="round" stroke-linejoin="round" />
  <polyline points="196,242 188,235 184,234 180,233" fill="none" stroke="currentColor" stroke-width="2" stroke-linecap="round" stroke-linejoin="round" />
  <polyline points="167,245 165,255 165,256 165,257 164,257" fill="none" stroke="currentColor" stroke-width="2" stroke-linecap="round" stroke-linejoin="round" />
  <polyline points="165,257 155,257 154,257 153,257 152,257 151,258 151,258 151,259 150,259 150,260 149,262 148,263 148,265 147,267 147,268 147,269 147,269" fill="none" stroke="currentColor" stroke-width="2" stroke-linecap="round" stroke-linejoin="round" />
  <polyline points="147,269 159,269 161,269 163,269" fill="none" stroke="currentColor" stroke-width="2" stroke-linecap="round" stroke-linejoin="round" />
  <polyline points="161,277 163,263" fill="none" stroke="currentColor" stroke-width="2" stroke-linecap="round" stroke-linejoin="round" />
  <polyline points="140,219 131,221 129,222" fill="none" stroke="currentColor" stroke-width="2" stroke-linecap="round" stroke-linejoin="round" />
  <polyline points="159,221 148,224 142,224 135,225 129,225 125,224 122,224 119,223" fill="none" stroke="currentColor" stroke-width="2" stroke-linecap="round" stroke-linejoin="round" />
  <polyline points="143,227 131,227 129,227 127,227 123,227 121,228 118,228 114,230 110,233 107,236 101,241 96,247 93,252 90,257 87,261 84,267 82,272 81,275 81,278 82,281 85,283 88,284 92,284 97,284 104,282 111,280 117,276 121,273 125,269 128,264 129,257 129,250 129,243 127,236 126,231 124,228 122,226" fill="none" stroke="currentColor" stroke-width="2" stroke-linecap="round" stroke-linejoin="round" />
  <polyline points="108,257 108,256" fill="none" stroke="currentColor" stroke-width="2" stroke-linecap="round" stroke-linejoin="round" />
  <polyline points="110,266 104,257 101,251 99,249 97,246 96,243" fill="none" stroke="currentColor" stroke-width="2" stroke-linecap="round" stroke-linejoin="round" />
  <polyline points="107,258 117,251 122,248 128,244" fill="none" stroke="currentColor" stroke-width="2" stroke-linecap="round" stroke-linejoin="round" />
  <polyline points="119,256 119,267 119,275 118,284" fill="none" stroke="currentColor" stroke-width="2" stroke-linecap="round" stroke-linejoin="round" />
  <polyline points="103,267 93,275 85,280 76,286" fill="none" stroke="currentColor" stroke-width="2" stroke-linecap="round" stroke-linejoin="round" />
  <polyline points="108,271 94,265 89,264" fill="none" stroke="currentColor" stroke-width="2" stroke-linecap="round" stroke-linejoin="round" />
  <polyline points="138,226 137,215 136,213 135,208 135,205 133,201 133,198 132,196 132,194" fill="none" stroke="currentColor" stroke-width="2" stroke-linecap="round" stroke-linejoin="round" />
  <polyline points="132,194 138,201 140,202 141,202 142,202 142,202 142,202" fill="none" stroke="currentColor" stroke-width="2" stroke-linecap="round" stroke-linejoin="round" />
  <polyline points="123,196 126,182 127,177 128,174" fill="none" stroke="currentColor" stroke-width="2" stroke-linecap="round" stroke-linejoin="round" />
  <polyline points="135,202 141,191 143,187 145,184 147,180 149,177" fill="none" stroke="currentColor" stroke-width="2" stroke-linecap="round" stroke-linejoin="round" />
  <polyline points="127,195 133,204 136,207 139,211 143,214 148,218 150,219" fill="none" stroke="currentColor" stroke-width="2" stroke-linecap="round" stroke-linejoin="round" />
</svg>