<svg xmlns="http://www.w3.org/2000/svg" viewBox="0 0 400 400" width="400" height="400">
  <polyline points="130,76 131,95 130,110 130,127 131,146 131,166 131,185 131,201 131,215 130,225 128,232 128,231 128,230 127,230 127,229 127,228 127,227 127,226 128,225 131,221 137,213 149,192 156,182 164,170 172,159 181,148 201,126 212,116 223,107 235,101 247,95 260,92 271,90 284,90 295,91 305,94 313,97 320,102 317,233 216,215 125,93 116,77" fill="none" stroke="#777777" stroke-width="2" stroke-linecap="round" stroke-linejoin="round" />
  <polyline points="290,129 298,152" fill="none" stroke="#777777" stroke-width="2" stroke-linecap="round" stroke-linejoin="round" />
  <polyline points="288,181 303,184 306,183" fill="none" stroke="#777777" stroke-width="2" stroke-linecap="round" stroke-linejoin="round" />
</svg>