<svg xmlns="http://www.w3.org/2000/svg" viewBox="0 0 400 400" width="400" height="400">
  <polyline points="212,200 195,184 187,179 176,175 163,177 148,181 132,190 115,201 87,237 215,341 277,232 276,233 313,120 330,89" fill="none" stroke="#777777" stroke-width="2" stroke-linecap="round" stroke-linejoin="round" />
  <polyline points="212,217 221,190 232,167 242,147 254,127 267,111 280,96 291,84 300,75" fill="none" stroke="#777777" stroke-width="2" stroke-linecap="round" stroke-linejoin="round" />
  <polyline points="301,75 315,82 321,86 328,89" fill="none" stroke="#777777" stroke-width="2" stroke-linecap="round" stroke-linejoin="round" />
  <polyline points="313,84 293,118 278,144 265,170 254,195 246,214" fill="none" stroke="#777777" stroke-width="2" stroke-linecap="round" stroke-linejoin="round" />
  <polyline points="322,89 312,103 301,122 288,150 275,183 264,216 256,245" fill="none" stroke="#777777" stroke-width="2" stroke-linecap="round" stroke-linejoin="round" />
  <polyline points="139,299 143,283 151,265 169,245 188,226 210,212 231,206 248,209 260,220 265,236 266,253 262,269 255,283 242,296 226,307 209,316 193,321 180,322 171,314 165,300 164,278 169,250" fill="none" stroke="#777777" stroke-width="2" stroke-linecap="round" stroke-linejoin="round" />
</svg>