<svg xmlns="http://www.w3.org/2000/svg" viewBox="0 0 400 400" width="400" height="400">
  <polyline points="108,325 119,289 132,254 148,208 163,173 178,140 188,124 188,126 188,128 188,129" fill="none" stroke="#777777" stroke-width="2" stroke-linecap="round" stroke-linejoin="round" />
  <polyline points="108,330 124,324 137,318 149,312 163,307 174,304 182,302 182,303 181,303 206,124 188,129" fill="none" stroke="#777777" stroke-width="2" stroke-linecap="round" stroke-linejoin="round" />
  <polyline points="194,122 205,109 212,101 214,100 215,99 216,99 216,100 211,117 208,128" fill="none" stroke="#777777" stroke-width="2" stroke-linecap="round" stroke-linejoin="round" />
</svg>