<svg xmlns="http://www.w3.org/2000/svg" viewBox="0 0 400 400" width="400" height="400">
  <polyline points="92,229 95,209 103,183 119,148 137,119 163,92 195,73 231,61 267,59 299,64 323,82 338,106 347,133 349,162 343,192 332,219 313,246 87,199" fill="none" stroke="#777777" stroke-width="2" stroke-linecap="round" stroke-linejoin="round" />
  <polyline points="218,194 216,168 215,151 214,132 216,111 218,93 221,78" fill="none" stroke="#777777" stroke-width="2" stroke-linecap="round" stroke-linejoin="round" />
  <polyline points="224,164 213,182 196,215" fill="none" stroke="#777777" stroke-width="2" stroke-linecap="round" stroke-linejoin="round" />
  <polyline points="207,157 221,163 235,170 250,177 266,183 280,188" fill="none" stroke="#777777" stroke-width="2" stroke-linecap="round" stroke-linejoin="round" />
  <polyline points="217,160 194,158 182,157 165,155 149,154" fill="none" stroke="#777777" stroke-width="2" stroke-linecap="round" stroke-linejoin="round" />
</svg>