<svg xmlns="http://www.w3.org/2000/svg" viewBox="0 0 400 400" width="400" height="400">
  <polyline points="135,129 133,129 132,129 131,130 129,132 127,133 125,134 125,136 124,137 123,138 122,140 122,141 121,143 121,145 121,145 121,146 121,147 122,148 125,149 129,151 132,153 135,155 138,156 141,156 144,156 148,156 152,156 154,156 157,156 159,155 166,151 169,149 171,149 173,149 173,148 174,147 174,146 175,145 175,145 175,144 175,143" fill="none" stroke="#777777" stroke-width="2" stroke-linecap="round" stroke-linejoin="round" />
  <polyline points="148,128 149,128 150,129 153,129 157,130 158,130 158,131 159,132 160,132 160,133 162,134 164,135 165,136 165,136 166,137 168,137 169,138 169,138 170,138 171,138 172,139" fill="none" stroke="#777777" stroke-width="2" stroke-linecap="round" stroke-linejoin="round" />
  <polyline points="173,140 173,140 176,138 177,138 179,137 182,135 185,133 188,131 189,130 190,130 190,131 190,132 189,133 189,135 189,136 188,137 188,138 188,140 188,143 188,145 188,145 188,146 188,147 188,148 189,149 189,149 189,150 187,151 185,151 185,151 182,151 180,151 176,148 173,146 171,146 170,146" fill="none" stroke="#777777" stroke-width="2" stroke-linecap="round" stroke-linejoin="round" />
  <polyline points="133,127 135,127 136,127 138,127 141,127 144,127 145,127 145,127 146,127" fill="none" stroke="#777777" stroke-width="2" stroke-linecap="round" stroke-linejoin="round" />
  <polyline points="133,137 134,138" fill="none" stroke="#777777" stroke-width="2" stroke-linecap="round" stroke-linejoin="round" />
  <polyline points="138,130 138,131 140,133 141,135 142,136 142,137 142,137 142,138 143,141 143,143 143,146 143,147 143,148 143,149 143,149 143,150 145,150 145,150" fill="none" stroke="#777777" stroke-width="2" stroke-linecap="round" stroke-linejoin="round" />
  <polyline points="146,131 148,133 149,133 149,135 152,137 153,139 153,140 153,142 153,144 153,146 153,148 153,149 153,150 152,150 151,150 151,149" fill="none" stroke="#777777" stroke-width="2" stroke-linecap="round" stroke-linejoin="round" />
  <polyline points="157,136 158,137 158,137 161,140 162,141 163,142 163,144 163,145 163,146 161,147 159,149 157,149 156,149 155,149" fill="none" stroke="#777777" stroke-width="2" stroke-linecap="round" stroke-linejoin="round" />
</svg>