<svg xmlns="http://www.w3.org/2000/svg" viewBox="0 0 400 400" width="400" height="400">
  <polyline points="146,115 146,118 146,123 147,128 148,137 148,145 148,149 146,153 146,157 146,160 145,164 145,166 143,169 141,169 141,170 141,170 140,170 141,170 141,169 143,169" fill="none" stroke="currentColor" stroke-width="2" stroke-linecap="round" stroke-linejoin="round" />
  <polyline points="157,113 158,113 158,114 158,115 158,117 159,121 159,125 159,129 159,134 161,141 165,146 168,150 170,153 172,156 176,159 177,160 180,161 181,161 181,161 182,161 183,161 185,160" fill="none" stroke="currentColor" stroke-width="2" stroke-linecap="round" stroke-linejoin="round" />
  <polyline points="137,97 136,98 136,99 136,100 136,101 136,102" fill="none" stroke="currentColor" stroke-width="2" stroke-linecap="round" stroke-linejoin="round" />
  <polyline points="136,103 134,103 133,101 131,100 129,97 128,92 127,88 128,83 131,80" fill="none" stroke="currentColor" stroke-width="2" stroke-linecap="round" stroke-linejoin="round" />
  <polyline points="145,77 147,77 149,80 151,81 152,82 153,84 153,85 154,85 155,85 157,85" fill="none" stroke="currentColor" stroke-width="2" stroke-linecap="round" stroke-linejoin="round" />
  <polyline points="161,85 162,85 163,86 163,87 163,88 164,90 165,91 165,92 167,92 172,93 174,93 175,93 175,93 174,94 172,97 169,100 165,102 163,105 162,105" fill="none" stroke="currentColor" stroke-width="2" stroke-linecap="round" stroke-linejoin="round" />
  <polyline points="142,107 142,108 142,109 141,109 141,109 139,109 137,109 134,109 132,109 130,109 129,109 128,108" fill="none" stroke="currentColor" stroke-width="2" stroke-linecap="round" stroke-linejoin="round" />
  <polyline points="127,106 127,105 127,104 125,101 122,99 121,99" fill="none" stroke="currentColor" stroke-width="2" stroke-linecap="round" stroke-linejoin="round" />
  <polyline points="119,88 119,87 119,86 120,86 121,85 121,84 122,84" fill="none" stroke="currentColor" stroke-width="2" stroke-linecap="round" stroke-linejoin="round" />
  <polyline points="151,69 152,69 153,69 155,69 158,69 161,69 161,69 161,69" fill="none" stroke="currentColor" stroke-width="2" stroke-linecap="round" stroke-linejoin="round" />
  <polyline points="175,82 177,83 177,85 178,85 180,89 181,93 178,93 176,96 173,98 170,100 167,102 166,104" fill="none" stroke="currentColor" stroke-width="2" stroke-linecap="round" stroke-linejoin="round" />
  <polyline points="165,110 165,110 167,110 168,110 169,110 169,110" fill="none" stroke="currentColor" stroke-width="2" stroke-linecap="round" stroke-linejoin="round" />
  <polyline points="137,119 135,119 133,119 130,119 128,119 125,119 121,118 118,117 115,117 114,116 113,115 111,113 110,111 109,109 109,107 109,106" fill="none" stroke="currentColor" stroke-width="2" stroke-linecap="round" stroke-linejoin="round" />
  <polyline points="157,110 157,111 159,112 164,112 168,112 174,108 181,106 186,101 188,99 189,97 190,93 190,91 190,90" fill="none" stroke="currentColor" stroke-width="2" stroke-linecap="round" stroke-linejoin="round" />
  <polyline points="109,96 109,95 108,93 107,89" fill="none" stroke="currentColor" stroke-width="2" stroke-linecap="round" stroke-linejoin="round" />
  <polyline points="107,85 107,84 107,82 107,80 108,77 109,75 112,73 114,72 114,71" fill="none" stroke="currentColor" stroke-width="2" stroke-linecap="round" stroke-linejoin="round" />
  <polyline points="117,69 119,69 119,68 121,68 123,67 124,66 125,65 126,65" fill="none" stroke="currentColor" stroke-width="2" stroke-linecap="round" stroke-linejoin="round" />
  <polyline points="138,65 139,65 141,64 145,62 148,62" fill="none" stroke="currentColor" stroke-width="2" stroke-linecap="round" stroke-linejoin="round" />
  <polyline points="157,62 158,62 159,62 161,62 163,62 165,61 169,61 171,61" fill="none" stroke="currentColor" stroke-width="2" stroke-linecap="round" stroke-linejoin="round" />
  <polyline points="177,60 178,60 180,61 181,62 182,65 184,66 186,69 187,69 188,71" fill="none" stroke="currentColor" stroke-width="2" stroke-linecap="round" stroke-linejoin="round" />
  <polyline points="192,81 192,83 192,84 192,85 192,85 192,86 192,87 191,87 190,88" fill="none" stroke="currentColor" stroke-width="2" stroke-linecap="round" stroke-linejoin="round" />
</svg>