<svg xmlns="http://www.w3.org/2000/svg" viewBox="0 0 400 400" width="400" height="400">
  <polyline points="93,189 95,197 95,206 98,223 98,241 99,263 98,283 98,303" fill="none" stroke="currentColor" stroke-width="2" stroke-linecap="round" stroke-linejoin="round" />
  <polyline points="95,192 105,200 114,213 125,228 138,244 153,261 167,276 181,287 194,293 206,293 213,285 217,271 217,251 216,232 214,212 193,143" fill="none" stroke="currentColor" stroke-width="2" stroke-linecap="round" stroke-linejoin="round" />
  <polyline points="286,206 280,213 275,219 268,232 263,243 259,259 260,270 266,280 276,282 290,278 303,268 313,256 319,240 321,225 318,209 310,196 297,185 282,180 265,179 251,186" fill="none" stroke="currentColor" stroke-width="2" stroke-linecap="round" stroke-linejoin="round" />
</svg>