<svg xmlns="http://www.w3.org/2000/svg" viewBox="0 0 400 400" width="400" height="400">
  <polyline points="85,144 85,152 85,165 87,182 88,203 90,222 92,242 96,259" fill="none" stroke="currentColor" stroke-width="2" stroke-linecap="round" stroke-linejoin="round" />
  <polyline points="90,156 97,161 105,169 114,182 126,198 138,216 153,235 166,251 181,263 192,269 202,268 208,260 211,245 211,226 206,203 202,179 177,89" fill="none" stroke="currentColor" stroke-width="2" stroke-linecap="round" stroke-linejoin="round" />
  <polyline points="277,183 273,189 272,193 268,204 268,212 270,222 275,228 283,229 294,222 303,211 310,195 313,177 314,160 308,145 298,136 282,133 265,136 249,142 237,154" fill="none" stroke="currentColor" stroke-width="2" stroke-linecap="round" stroke-linejoin="round" />
</svg>