<svg xmlns="http://www.w3.org/2000/svg" viewBox="0 0 400 400" width="400" height="400">
  <polyline points="64,226 65,235 68,244 71,254 74,268 79,281 83,295 86,308 88,318" fill="none" stroke="currentColor" stroke-width="2" stroke-linecap="round" stroke-linejoin="round" />
  <polyline points="69,230 81,239 91,245 104,255 117,265 132,276 148,286 161,295 138,181" fill="none" stroke="currentColor" stroke-width="2" stroke-linecap="round" stroke-linejoin="round" />
  <polyline points="222,234 217,239 214,243 205,252 199,262 194,272 192,282 195,290 204,294 214,294 226,290 235,283 242,272 244,262 243,251 238,242 231,235 222,230 211,230 201,231" fill="none" stroke="currentColor" stroke-width="2" stroke-linecap="round" stroke-linejoin="round" />
</svg>