<svg xmlns="http://www.w3.org/2000/svg" viewBox="0 0 400 400" width="400" height="400">
  <polyline points="111,149 126,133 142,118 154,113 158,112 160,112 181,135 199,161 212,179 221,197 225,213 225,227 222,240 211,251 184,261 172,264 141,269 126,269 116,265 114,263 111,255 110,242 111,227 118,215 144,217 178,236 217,258 247,272 267,278 276,278 286,272 292,260 295,249 301,225 301,205 299,181 296,163 294,154 292,151 292,150 290,150 287,150 286,151 277,157 268,166 264,174 261,184 258,194 254,206 249,221 246,224 245,225 246,220 257,193 276,155" fill="none" stroke="currentColor" stroke-width="2" stroke-linecap="round" stroke-linejoin="round" />
</svg>