<svg xmlns="http://www.w3.org/2000/svg" viewBox="0 0 400 400" width="400" height="400">
  <polyline points="118,63 104,82 91,103 80,124 72,140 65,151 61,157 59,158" fill="none" stroke="#777777" stroke-width="2" stroke-linecap="round" stroke-linejoin="round" />
  <polyline points="123,63 124,74 128,90 133,109 139,126 144,141 146,147" fill="none" stroke="#777777" stroke-width="2" stroke-linecap="round" stroke-linejoin="round" />
  <polyline points="257,57 246,93 240,116 235,134 233,148 232,154" fill="none" stroke="#777777" stroke-width="2" stroke-linecap="round" stroke-linejoin="round" />
  <polyline points="258,62 265,78 271,97 276,115 279,123" fill="none" stroke="#777777" stroke-width="2" stroke-linecap="round" stroke-linejoin="round" />
  <polyline points="73,158 86,159 96,158 108,158 119,157 131,157 143,156 156,154 169,152 182,151 196,151 211,152 225,153 232,154 244,155" fill="none" stroke="#777777" stroke-width="2" stroke-linecap="round" stroke-linejoin="round" />
  <polyline points="108,86 120,83 133,80 161,76 190,74 214,73 232,73 245,73 256,73 265,74 272,73 275,73" fill="none" stroke="#777777" stroke-width="2" stroke-linecap="round" stroke-linejoin="round" />
  <polyline points="72,157 70,169 70,183 69,198 69,212 68,225 66,237 64,249 63,254" fill="none" stroke="#777777" stroke-width="2" stroke-linecap="round" stroke-linejoin="round" />
  <polyline points="286,121 285,137 283,158 280,181 278,199 275,213 272,227 269,239 266,248 265,251" fill="none" stroke="#777777" stroke-width="2" stroke-linecap="round" stroke-linejoin="round" />
  <polyline points="72,258 87,260 108,266 133,273 155,279 175,281 197,280 220,276 241,271 258,265 272,261 282,257 290,253 296,248 298,245" fill="none" stroke="#777777" stroke-width="2" stroke-linecap="round" stroke-linejoin="round" />
</svg>