<svg xmlns="http://www.w3.org/2000/svg" viewBox="0 0 400 400" width="400" height="400">
  <polyline points="204,89 195,84 184,83 167,88 149,99 134,114 125,130 119,148 119,167 123,187 130,206 140,221 155,232 172,239 191,242 212,240 233,230 251,214 265,197 273,182 278,169 280,159 277,146 268,129 254,114 239,103 225,96 219,92 201,87 192,84 186,83 184,83" fill="none" stroke="currentColor" stroke-width="2" stroke-linecap="round" stroke-linejoin="round" />
  <polyline points="242,185 234,181 230,178" fill="none" stroke="currentColor" stroke-width="2" stroke-linecap="round" stroke-linejoin="round" />
  <polyline points="253,136 242,129 240,128" fill="none" stroke="currentColor" stroke-width="2" stroke-linecap="round" stroke-linejoin="round" />
  <polyline points="202,103 201,112 201,117" fill="none" stroke="currentColor" stroke-width="2" stroke-linecap="round" stroke-linejoin="round" />
  <polyline points="153,111 158,125 160,130" fill="none" stroke="currentColor" stroke-width="2" stroke-linecap="round" stroke-linejoin="round" />
  <polyline points="139,156 149,159" fill="none" stroke="currentColor" stroke-width="2" stroke-linecap="round" stroke-linejoin="round" />
  <polyline points="147,185 157,180" fill="none" stroke="currentColor" stroke-width="2" stroke-linecap="round" stroke-linejoin="round" />
  <polyline points="169,214 173,204 175,198" fill="none" stroke="currentColor" stroke-width="2" stroke-linecap="round" stroke-linejoin="round" />
  <polyline points="233,216 226,205 221,193 218,181 217,175" fill="none" stroke="currentColor" stroke-width="2" stroke-linecap="round" stroke-linejoin="round" />
  <polyline points="205,232 204,222 205,207 205,198" fill="none" stroke="currentColor" stroke-width="2" stroke-linecap="round" stroke-linejoin="round" />
  <polyline points="267,162 252,154 248,151" fill="none" stroke="currentColor" stroke-width="2" stroke-linecap="round" stroke-linejoin="round" />
  <polyline points="243,106 237,113 234,117" fill="none" stroke="currentColor" stroke-width="2" stroke-linecap="round" stroke-linejoin="round" />
  <polyline points="177,99 181,111 186,126 190,135" fill="none" stroke="currentColor" stroke-width="2" stroke-linecap="round" stroke-linejoin="round" />
  <polyline points="200,148 187,156 182,162 180,167 180,171 181,175 183,179 186,182 191,183 195,184 201,183 206,181 210,177 214,173 217,168 219,163 220,159 220,156 219,153 217,151 215,149 212,148 210,147 207,147 207,146" fill="none" stroke="currentColor" stroke-width="2" stroke-linecap="round" stroke-linejoin="round" />
</svg>