<svg xmlns="http://www.w3.org/2000/svg" viewBox="0 0 400 400" width="400" height="400">
  <polyline points="138,101 136,115 135,123 133,129 133,143 133,151 134,155 135,157 136,162 138,164 144,169 149,171 155,173 161,173 170,172 180,170 192,165 203,158 212,149 219,139 223,130 225,120 225,112 224,108 222,102 216,95 214,93 210,89 205,87 200,87 193,87 190,87 183,89 180,89 177,89 175,91 169,95 166,96 164,99 161,101 159,102 158,103 157,103 156,104 152,109 150,113 149,114 147,117 145,122 144,128 143,131 144,134" fill="none" stroke="currentColor" stroke-width="2" stroke-linecap="round" stroke-linejoin="round" />
  <polyline points="194,160 194,174 194,181 194,188 197,207 206,249 218,290 229,318 237,334" fill="none" stroke="currentColor" stroke-width="2" stroke-linecap="round" stroke-linejoin="round" />
  <polyline points="194,203 185,208 183,211 179,213 171,221 161,230 152,239 145,247 140,251 137,255 133,259 128,265 125,269" fill="none" stroke="currentColor" stroke-width="2" stroke-linecap="round" stroke-linejoin="round" />
  <polyline points="169,202 178,204 186,205 196,208 202,209 215,212 230,216 244,217 256,219 266,220 273,220" fill="none" stroke="currentColor" stroke-width="2" stroke-linecap="round" stroke-linejoin="round" />
  <polyline points="211,275 201,284 198,288 192,297 186,311 179,327 173,339 168,349 163,356 160,363 156,367 153,370 148,375" fill="none" stroke="currentColor" stroke-width="2" stroke-linecap="round" stroke-linejoin="round" />
  <polyline points="185,285 198,284 205,283 209,283 217,284 226,287 237,290 249,297 261,304 271,309 279,315 281,315 287,318 289,320 292,322" fill="none" stroke="currentColor" stroke-width="2" stroke-linecap="round" stroke-linejoin="round" />
  <polyline points="155,137 166,135 168,135 169,134 171,133 172,132 173,132 173,132 173,132 173,132 173,132" fill="none" stroke="currentColor" stroke-width="2" stroke-linecap="round" stroke-linejoin="round" />
  <polyline points="191,130 198,123" fill="none" stroke="currentColor" stroke-width="2" stroke-linecap="round" stroke-linejoin="round" />
  <polyline points="183,121 187,131 188,132 188,133 188,134 189,135" fill="none" stroke="currentColor" stroke-width="2" stroke-linecap="round" stroke-linejoin="round" />
  <polyline points="171,155 181,155 184,155" fill="none" stroke="currentColor" stroke-width="2" stroke-linecap="round" stroke-linejoin="round" />
</svg>