<svg xmlns="http://www.w3.org/2000/svg" viewBox="0 0 400 400" width="400" height="400">
  <polyline points="196,62 194,79 192,92 190,108 188,124 186,137 186,148 186,157 186,164 186,168 186,169 186,173 186,179 186,185 186,189 186,193 186,196 186,199 186,203 186,208 186,212 186,216 186,220 186,223 186,225 186,228 186,232 186,237 185,244 185,250 185,256 185,261 185,265 185,270 185,275 184,280 184,284 184,287 184,291 184,294 184,295" fill="none" stroke="#777777" stroke-width="2" stroke-linecap="round" stroke-linejoin="round" />
  <polyline points="188,209 177,201 167,195 156,191 144,187 130,182 119,178 110,174 106,172 105,171 103,168" fill="none" stroke="#777777" stroke-width="2" stroke-linecap="round" stroke-linejoin="round" />
  <polyline points="177,211 197,198 222,183 240,172 251,166 264,159 277,153 286,148" fill="none" stroke="#777777" stroke-width="2" stroke-linecap="round" stroke-linejoin="round" />
  <polyline points="182,171 191,167 206,157 224,146 235,139 244,134 249,131" fill="none" stroke="#777777" stroke-width="2" stroke-linecap="round" stroke-linejoin="round" />
  <polyline points="184,133 198,120 217,103 228,92 232,85" fill="none" stroke="#777777" stroke-width="2" stroke-linecap="round" stroke-linejoin="round" />
  <polyline points="186,185 158,176 138,166 126,159 122,157 121,156 120,152" fill="none" stroke="#777777" stroke-width="2" stroke-linecap="round" stroke-linejoin="round" />
  <polyline points="180,139 157,132 148,128 145,125" fill="none" stroke="#777777" stroke-width="2" stroke-linecap="round" stroke-linejoin="round" />
  <polyline points="193,79 185,75 183,74 180,73 175,69" fill="none" stroke="#777777" stroke-width="2" stroke-linecap="round" stroke-linejoin="round" />
  <polyline points="194,103 184,101 179,99" fill="none" stroke="#777777" stroke-width="2" stroke-linecap="round" stroke-linejoin="round" />
  <polyline points="185,89 196,87 201,86 211,82 230,75 246,68 256,63" fill="none" stroke="#777777" stroke-width="2" stroke-linecap="round" stroke-linejoin="round" />
</svg>