<svg xmlns="http://www.w3.org/2000/svg" viewBox="0 0 400 400" width="400" height="400">
  <polyline points="110,121 111,134 111,135 111,139 111,142 111,147 111,151 111,156 111,159 111,163 111,168 111,171" fill="none" stroke="#777777" stroke-width="2" stroke-linecap="round" stroke-linejoin="round" />
  <polyline points="76,144 92,132 100,125 108,118 115,113 120,108 126,103 130,99" fill="none" stroke="#777777" stroke-width="2" stroke-linecap="round" stroke-linejoin="round" />
  <polyline points="123,173 114,176 111,179 104,183 100,186 96,191 92,195 88,201 85,204 83,208 82,213 82,217 83,222 85,230 87,232 90,236 95,239 97,240 101,241 107,241 111,240 121,236 126,233 129,230 131,228 134,224 135,220 136,217 136,212 136,204 135,196 135,191 134,188 134,186 133,184 132,183 131,181 130,180 129,179 128,178 126,175 126,174" fill="none" stroke="#777777" stroke-width="2" stroke-linecap="round" stroke-linejoin="round" />
  <polyline points="133,147 144,149 150,150 156,150 162,151 168,151 174,150 179,150 184,150 188,150 191,150 194,149 198,149 200,148 203,148 205,148 207,148 208,147 210,147 211,146" fill="none" stroke="#777777" stroke-width="2" stroke-linecap="round" stroke-linejoin="round" />
  <polyline points="215,149 214,161 214,166 214,169 214,171 213,172 213,173 213,174" fill="none" stroke="#777777" stroke-width="2" stroke-linecap="round" stroke-linejoin="round" />
  <polyline points="219,189 211,201 210,203 210,206 209,212 209,216 210,220 212,224 214,227 216,229 220,230 224,230 233,229 241,226 248,221 255,215 260,208 264,203 267,198 269,194 269,190 269,189 267,185 264,180 260,176 257,174 253,172 250,171 247,171 243,170 233,172 223,175 214,179 208,182 204,184 202,185 201,185" fill="none" stroke="#777777" stroke-width="2" stroke-linecap="round" stroke-linejoin="round" />
  <polyline points="219,145 220,135 220,134" fill="none" stroke="#777777" stroke-width="2" stroke-linecap="round" stroke-linejoin="round" />
  <polyline points="216,127 228,127" fill="none" stroke="#777777" stroke-width="2" stroke-linecap="round" stroke-linejoin="round" />
</svg>