<svg xmlns="http://www.w3.org/2000/svg" viewBox="0 0 400 400" width="400" height="400">
  <polyline points="238,82 217,81 209,81 190,85 165,102 157,115 155,121 149,135 144,153 142,172 142,193 145,217 151,236 159,252 168,264 182,272 198,277 210,278 234,275 246,272 262,262 276,244 281,235 289,212 292,194 292,182 292,164 288,139 282,126 273,114 261,105 245,99 231,95 220,93 213,91 211,91 211,91" fill="none" stroke="#777777" stroke-width="2" stroke-linecap="round" stroke-linejoin="round" />
  <polyline points="217,179 220,168 224,157 228,143 233,129 238,117 241,106 245,98 246,94 246,92 246,92" fill="none" stroke="#777777" stroke-width="2" stroke-linecap="round" stroke-linejoin="round" />
  <polyline points="225,189 239,192 244,193 255,195 265,197 274,197 282,198 289,198 296,197" fill="none" stroke="#777777" stroke-width="2" stroke-linecap="round" stroke-linejoin="round" />
</svg>