<svg xmlns="http://www.w3.org/2000/svg" viewBox="0 0 400 400" width="400" height="400">
  <polyline points="119,209 120,209 121,209 124,209 128,208 141,206 145,206 154,205 160,205 170,204 177,204 192,203 195,202 203,200 206,199 206,198 210,197 211,197 217,197 218,197 228,195 231,195 235,195 243,195 249,195 263,194 274,194 277,194 280,194 280,195 280,195 279,196 276,200 274,201 268,207 264,209 260,212 258,214 255,217 254,218 249,223 247,225 244,227 244,228 243,228 244,228 244,228 249,230 252,231 258,233 262,234 271,235 273,235 280,236 282,236 284,237 285,237 286,237 286,238 288,238 289,238 290,238" fill="none" stroke="#777777" stroke-width="2" stroke-linecap="round" stroke-linejoin="round" />
</svg>