<svg xmlns="http://www.w3.org/2000/svg" viewBox="0 0 400 400" width="400" height="400">
  <polyline points="106,125 102,130 96,147 87,202 90,231 100,254 111,268 136,275 156,270 167,265 185,251 202,225 205,206 204,188 195,170 189,161 152,138 126,127 102,118 86,114 71,115 67,125 66,133 66,154 66,164 68,178" fill="none" stroke="#777777" stroke-width="2" stroke-linecap="round" stroke-linejoin="round" />
  <polyline points="131,195 132,195 132,195 132,195" fill="none" stroke="#777777" stroke-width="2" stroke-linecap="round" stroke-linejoin="round" />
  <polyline points="132,195 133,183 132,155 129,129 123,104 123,88" fill="none" stroke="#777777" stroke-width="2" stroke-linecap="round" stroke-linejoin="round" />
  <polyline points="126,192 127,192 130,192 137,189 155,184 169,184 181,184 186,184 187,184" fill="none" stroke="#777777" stroke-width="2" stroke-linecap="round" stroke-linejoin="round" />
</svg>